<svg id="svg" version="1.1" xmlns="http://www.w3.org/2000/svg" xmlns:xlink="http://www.w3.org/1999/xlink" width="400" height="366.04110813226094" viewBox="0, 0, 400,366.04110813226094"><g id="svgg"><path id="path0" d="M197.074 0.676 C 195.610 1.596,195.055 2.662,195.055 4.556 C 195.055 6.016,195.011 6.077,193.953 6.080 C 193.347 6.082,192.006 6.185,190.974 6.308 L 189.097 6.534 189.097 9.880 L 189.097 13.226 190.349 13.226 L 191.600 13.226 191.593 28.329 C 191.587 41.202,191.300 47.961,190.736 48.525 C 190.343 48.918,177.102 49.224,176.860 48.846 C 176.715 48.621,176.595 47.592,176.592 46.559 L 176.586 44.683 173.012 44.683 L 169.437 44.683 169.437 46.461 C 169.437 48.231,169.432 48.238,168.406 48.033 C 167.791 47.910,166.883 48.061,166.156 48.405 C 161.695 50.522,163.482 58.563,168.241 57.790 L 169.437 57.596 169.437 59.361 L 169.437 61.126 173.012 61.126 L 176.586 61.126 176.586 59.368 C 176.586 56.562,176.498 56.619,180.616 56.742 C 182.627 56.801,185.267 56.939,186.483 57.048 L 188.694 57.246 189.253 59.703 C 189.561 61.055,189.812 62.624,189.812 63.190 L 189.812 64.220 185.791 64.673 C 166.851 66.806,149.177 73.195,133.631 83.528 C 131.730 84.792,130.016 86.019,129.821 86.255 C 129.568 86.561,131.293 89.303,135.808 95.773 L 142.150 104.861 139.565 107.115 C 138.144 108.355,136.116 110.325,135.058 111.494 L 133.136 113.618 132.483 110.713 C 131.405 105.918,128.737 101.044,128.135 102.770 C 127.340 105.049,126.153 106.846,122.586 111.174 C 120.400 113.826,118.439 116.358,118.229 116.801 C 117.694 117.929,117.533 117.847,116.054 115.700 C 115.332 114.652,114.339 113.416,113.848 112.954 L 112.953 112.114 111.852 113.162 C 104.028 120.604,101.397 135.778,105.465 150.003 C 106.317 152.982,106.048 152.782,102.031 147.455 C 98.648 142.968,98.795 143.008,98.422 146.470 C 97.136 158.402,99.587 169.589,105.781 180.064 L 106.887 181.933 106.002 181.596 C 104.290 180.945,102.037 179.700,100.357 178.477 L 98.660 177.240 98.660 178.675 C 98.660 186.285,102.358 195.752,108.071 202.765 C 110.157 205.327,110.158 205.318,107.737 205.015 C 105.544 204.741,99.379 205.096,98.665 205.537 C 97.704 206.131,104.679 214.957,109.386 219.104 L 112.156 221.545 108.333 231.863 C 106.231 237.538,103.577 244.714,102.436 247.811 L 100.360 253.441 95.220 253.441 L 90.080 253.441 90.080 257.194 L 90.080 260.947 92.204 260.947 C 94.158 260.947,94.595 261.110,97.656 262.977 C 121.844 277.737,150.457 277.670,174.380 262.798 C 177.160 261.070,177.510 260.947,179.653 260.947 L 181.948 260.947 181.948 257.203 L 181.948 253.460 176.717 253.361 L 171.485 253.262 170.423 250.470 C 169.160 247.153,169.147 247.178,171.810 247.862 C 175.194 248.731,181.929 249.812,186.940 250.290 L 191.600 250.734 191.601 253.249 C 191.602 254.632,191.766 260.027,191.966 265.237 L 192.330 274.710 195.986 280.148 C 197.997 283.139,199.803 285.588,200.000 285.590 C 200.197 285.592,201.991 283.128,203.988 280.114 L 207.618 274.635 208.009 264.085 C 208.224 258.282,208.400 252.905,208.400 252.134 L 208.400 250.734 212.958 250.297 C 217.759 249.837,223.721 248.887,227.845 247.925 C 230.883 247.216,230.762 247.036,229.526 250.429 L 228.493 253.262 223.273 253.361 L 218.052 253.460 218.052 257.203 L 218.052 260.947 220.363 260.947 C 222.463 260.947,222.880 261.081,224.921 262.408 C 248.114 277.492,277.484 277.843,301.660 263.326 C 305.373 261.096,305.754 260.947,307.770 260.947 L 309.920 260.947 309.920 257.194 L 309.920 253.441 304.768 253.441 L 299.616 253.441 298.704 251.028 C 298.202 249.701,295.539 242.522,292.786 235.075 L 287.781 221.535 289.613 219.883 C 290.620 218.974,291.712 218.040,292.039 217.808 C 293.062 217.082,297.857 211.339,299.826 208.483 C 302.188 205.056,302.189 205.057,295.224 205.027 L 289.999 205.004 291.504 203.217 C 297.020 196.665,300.543 188.336,301.195 180.310 L 301.450 177.160 299.667 178.469 C 297.848 179.804,293.457 182.048,293.189 181.780 C 293.108 181.699,293.379 181.157,293.792 180.577 C 299.589 172.436,302.583 159.464,301.541 147.006 C 301.204 142.976,301.279 142.980,298.360 146.828 C 295.294 150.869,293.694 152.678,294.012 151.743 C 296.463 144.530,297.017 131.746,295.140 125.666 C 293.566 120.564,288.560 112.243,287.065 112.243 C 286.668 112.243,283.972 115.280,283.183 116.616 C 282.458 117.843,282.335 117.844,281.602 116.622 C 281.278 116.081,279.233 113.475,277.059 110.831 C 274.697 107.959,272.865 105.368,272.508 104.397 C 271.644 102.045,271.492 101.994,270.284 103.661 C 268.971 105.474,267.946 108.110,267.288 111.368 L 266.801 113.778 265.446 112.124 C 264.700 111.215,262.700 109.226,261.000 107.706 C 259.300 106.185,257.927 104.774,257.948 104.570 C 257.970 104.367,260.824 100.119,264.291 95.131 L 270.593 86.061 268.719 84.722 C 253.849 74.094,233.792 66.696,214.209 64.615 L 210.188 64.188 210.212 63.104 C 210.336 57.579,211.127 56.988,218.677 56.769 L 223.414 56.631 223.414 58.879 L 223.414 61.126 226.969 61.126 L 230.524 61.126 230.633 59.428 C 230.740 57.755,230.758 57.732,231.875 57.843 C 233.575 58.013,235.162 57.019,235.945 55.294 C 237.614 51.619,235.251 47.554,231.687 47.969 C 230.795 48.072,230.736 47.983,230.633 46.381 L 230.524 44.683 226.969 44.683 L 223.414 44.683 223.414 46.993 L 223.414 49.304 219.214 49.126 C 216.903 49.028,213.703 48.860,212.101 48.752 L 209.188 48.557 208.934 47.424 C 208.795 46.801,208.606 38.852,208.515 29.759 L 208.350 13.226 209.626 13.226 L 210.903 13.226 210.903 9.879 L 210.903 6.531 209.244 6.304 C 208.332 6.179,206.952 6.077,206.177 6.077 C 204.810 6.077,204.776 6.047,204.996 5.041 C 205.805 1.361,200.574 -1.522,197.074 0.676 M201.749 3.664 C 202.324 4.581,201.599 5.517,200.209 5.654 C 198.376 5.836,197.341 4.410,198.479 3.272 C 199.103 2.648,201.276 2.909,201.749 3.664 M207.596 9.126 C 208.556 9.439,208.008 10.279,206.702 10.494 C 202.675 11.160,191.957 10.648,191.957 9.790 C 191.957 9.525,192.319 9.224,192.761 9.122 C 194.477 8.727,206.385 8.730,207.596 9.126 M205.617 30.493 C 205.686 39.772,205.875 47.645,206.037 47.989 C 206.312 48.573,205.905 48.615,200.000 48.615 C 194.136 48.615,193.686 48.569,193.906 47.994 C 194.377 46.767,194.795 36.070,194.806 24.957 L 194.817 13.631 200.154 13.627 L 205.491 13.623 205.617 30.493 M173.917 50.223 C 174.290 54.208,173.843 58.266,173.030 58.266 C 172.048 58.266,171.628 53.939,172.171 49.419 C 172.546 46.294,173.594 46.777,173.917 50.223 M227.831 48.883 C 228.458 52.674,227.959 58.266,226.994 58.266 C 226.222 58.266,225.807 54.302,226.152 50.223 C 226.414 47.115,227.408 46.322,227.831 48.883 M169.080 53.067 C 169.080 53.507,168.777 54.140,168.407 54.475 C 166.990 55.757,165.803 52.658,167.182 51.278 C 167.913 50.548,169.080 51.648,169.080 53.067 M233.206 51.682 C 234.014 53.788,232.612 55.875,231.478 54.256 C 230.825 53.325,230.782 52.758,231.291 51.808 C 231.737 50.974,232.905 50.898,233.206 51.682 M220.643 52.058 C 222.625 52.251,223.056 52.406,223.056 52.926 C 223.056 53.942,219.254 54.143,200.000 54.143 C 180.454 54.143,176.944 53.950,176.944 52.874 C 176.944 52.377,177.213 52.176,177.927 52.141 C 187.934 51.648,192.527 51.569,204.290 51.686 C 211.957 51.762,219.316 51.929,220.643 52.058 M198.391 71.135 L 198.391 85.076 196.125 85.076 L 193.859 85.076 193.624 76.586 C 193.381 67.769,192.959 62.760,192.162 59.249 L 191.695 57.194 195.043 57.194 L 198.391 57.194 198.391 71.135 M207.822 59.428 C 207.069 63.120,206.608 68.724,206.369 77.122 L 206.142 85.076 203.875 85.076 L 201.609 85.076 201.609 71.135 L 201.609 57.194 204.944 57.194 L 208.279 57.194 207.822 59.428 M190.297 68.020 C 190.410 68.469,190.613 72.549,190.748 77.087 L 190.994 85.338 188.527 85.588 C 175.083 86.945,158.063 93.261,147.652 100.755 C 146.385 101.667,145.159 102.530,144.927 102.673 C 144.568 102.895,134.401 88.933,133.843 87.453 C 133.758 87.227,135.097 86.137,136.818 85.032 C 150.985 75.929,167.062 70.105,184.450 67.779 C 189.863 67.054,190.057 67.062,190.297 68.020 M220.515 68.481 C 232.736 70.529,243.043 73.922,254.160 79.558 C 257.630 81.317,265.487 85.952,266.251 86.690 C 266.410 86.844,255.637 102.385,255.286 102.508 C 255.137 102.560,253.195 101.387,250.971 99.901 C 240.158 92.676,226.074 87.489,212.554 85.752 L 209.022 85.298 209.266 77.412 C 209.400 73.075,209.603 68.987,209.717 68.327 L 209.924 67.128 212.647 67.373 C 214.145 67.509,217.686 68.007,220.515 68.481 M214.646 71.745 C 214.512 72.884,214.040 75.987,213.597 78.642 C 213.155 81.296,212.810 83.487,212.831 83.511 C 212.852 83.535,213.627 83.665,214.555 83.799 C 216.528 84.086,216.207 84.883,217.328 76.911 C 217.753 73.894,218.181 71.215,218.280 70.957 C 218.397 70.651,218.047 70.405,217.273 70.249 C 216.620 70.117,215.817 69.934,215.488 69.842 C 214.996 69.704,214.846 70.043,214.646 71.745 M179.341 70.611 C 171.080 73.643,173.841 85.780,182.522 84.590 C 185.469 84.186,187.310 83.143,187.310 81.879 C 187.310 80.806,186.855 80.435,186.413 81.149 C 185.417 82.761,181.967 83.227,180.199 81.988 C 175.575 78.750,178.848 69.618,183.722 72.158 C 184.516 72.572,185.176 72.873,185.190 72.827 C 185.977 70.156,183.321 69.150,179.341 70.611 M223.419 73.007 C 220.077 74.802,218.679 80.510,220.838 83.543 C 222.616 86.041,228.836 87.659,230.086 85.949 C 230.786 84.991,230.704 84.223,229.937 84.559 C 226.517 86.062,223.250 84.018,223.304 80.409 C 223.382 75.246,227.803 72.236,230.843 75.275 L 232.124 76.556 232.765 75.722 C 234.705 73.198,227.150 71.003,223.419 73.007 M164.707 74.487 C 163.384 74.930,162.223 75.370,162.128 75.466 C 162.032 75.561,162.830 78.285,163.900 81.519 C 164.971 84.753,165.850 87.681,165.855 88.025 C 165.864 88.769,165.998 88.779,167.732 88.175 C 169.567 87.536,169.540 87.649,168.543 84.718 C 168.053 83.276,167.691 82.074,167.740 82.047 C 167.789 82.021,168.536 81.691,169.400 81.315 C 171.985 80.189,172.961 77.746,171.757 75.417 C 170.718 73.409,168.721 73.145,164.707 74.487 M235.394 78.731 C 234.649 80.746,233.506 83.601,232.854 85.076 L 231.670 87.757 232.993 88.356 C 234.978 89.255,235.039 89.215,236.085 86.347 C 237.019 83.785,237.088 83.698,237.943 84.023 C 242.226 85.652,246.356 81.802,243.975 78.402 C 243.534 77.773,237.888 75.067,237.016 75.067 C 236.870 75.067,236.140 76.716,235.394 78.731 M167.645 75.779 C 168.742 76.366,169.261 78.489,168.567 79.549 C 167.647 80.954,167.082 80.619,166.426 78.281 C 165.665 75.567,165.992 74.895,167.645 75.779 M156.340 77.657 L 154.861 78.371 156.108 81.098 C 156.793 82.598,158.001 85.433,158.791 87.399 C 159.582 89.366,160.265 91.016,160.309 91.068 C 160.354 91.119,161.127 90.836,162.027 90.437 L 163.664 89.713 162.136 86.412 C 161.295 84.596,160.060 81.703,159.392 79.983 C 158.724 78.264,158.097 76.876,157.998 76.900 C 157.900 76.924,157.154 77.264,156.340 77.657 M240.961 78.701 C 241.780 80.231,240.261 82.574,238.451 82.574 C 237.561 82.574,237.543 82.351,238.291 80.562 C 238.609 79.801,239.006 78.819,239.173 78.380 C 239.522 77.463,240.381 77.617,240.961 78.701 M147.340 82.274 C 141.135 83.363,138.492 90.297,142.562 94.807 C 144.970 97.476,147.492 97.887,151.071 96.194 C 159.199 92.349,156.088 80.737,147.340 82.274 M248.512 82.242 C 243.879 83.660,242.188 90.055,245.482 93.701 C 250.776 99.561,259.802 96.170,259.074 88.595 C 258.661 84.295,252.976 80.875,248.512 82.242 M148.234 84.384 C 153.278 86.290,154.106 95.085,149.242 95.085 C 145.953 95.085,142.464 88.947,144.059 85.967 C 144.852 84.485,146.674 83.794,148.234 84.384 M254.471 84.586 C 256.584 86.066,256.604 88.925,254.521 91.800 C 252.302 94.863,249.560 95.472,247.644 93.328 C 244.430 89.730,250.577 81.859,254.471 84.586 M210.369 88.473 C 218.177 89.376,226.245 91.313,232.724 93.842 C 236.457 95.298,244.954 99.401,244.721 99.634 C 244.640 99.715,243.921 99.449,243.123 99.042 C 241.083 98.001,237.255 97.991,236.532 99.025 C 236.085 99.663,235.973 99.684,235.574 99.204 C 234.883 98.371,233.810 98.552,232.757 99.679 C 231.881 100.617,231.645 100.685,229.811 100.533 C 227.990 100.382,227.754 100.449,227.082 101.303 C 226.488 102.057,226.188 102.179,225.526 101.935 C 224.707 101.632,224.707 101.631,225.668 101.390 C 226.198 101.257,226.631 100.910,226.631 100.619 C 226.631 99.898,225.697 99.951,224.933 100.715 C 223.980 101.668,220.372 101.373,219.014 100.230 C 217.353 98.832,215.764 99.244,215.951 101.024 C 216.084 102.294,215.712 102.949,214.858 102.949 C 214.417 102.949,214.127 103.321,213.952 104.111 C 213.811 104.750,213.617 105.071,213.520 104.826 C 213.424 104.580,212.916 104.376,212.392 104.373 C 211.710 104.370,211.579 104.279,211.931 104.056 C 212.583 103.643,212.124 102.949,211.201 102.949 C 210.678 102.949,210.531 103.112,210.687 103.518 C 210.930 104.150,210.194 105.871,209.097 107.239 L 208.381 108.132 208.823 107.110 C 209.342 105.911,208.602 105.096,206.992 105.092 C 206.488 105.090,205.616 104.849,205.053 104.555 C 202.758 103.359,201.394 104.117,199.664 107.554 C 198.997 108.878,198.197 110.172,197.885 110.431 C 196.837 111.301,197.143 113.074,198.302 112.845 C 200.628 112.386,200.711 112.399,200.832 113.248 C 200.974 114.246,201.471 114.471,202.754 114.118 L 203.720 113.852 203.068 112.396 C 202.492 111.112,202.475 110.828,202.917 109.983 C 203.876 108.152,204.826 109.426,204.826 112.544 C 204.826 115.669,203.042 117.117,201.058 115.604 C 200.367 115.077,199.758 114.708,199.703 114.785 C 199.649 114.861,199.337 115.352,199.010 115.876 C 198.683 116.401,197.945 116.931,197.368 117.058 C 196.792 117.185,196.038 117.601,195.692 117.983 C 195.346 118.365,194.671 118.677,194.191 118.677 C 192.078 118.677,190.402 120.598,192.136 121.033 C 193.201 121.300,193.306 122.248,192.365 123.100 C 191.836 123.579,191.502 123.627,190.733 123.335 C 189.335 122.803,189.174 122.854,188.570 124.022 C 187.843 125.428,187.880 127.365,188.651 128.267 C 189.632 129.417,193.515 128.913,193.678 127.614 C 193.788 126.746,195.221 125.587,198.220 123.942 C 200.181 122.866,204.071 125.686,203.541 127.799 C 203.282 128.831,203.609 128.928,204.529 128.095 C 205.453 127.259,205.345 126.370,204.103 124.565 L 203.024 122.995 204.181 123.482 C 204.915 123.790,205.432 124.313,205.591 124.908 C 205.729 125.424,206.337 126.411,206.942 127.100 C 207.548 127.790,208.043 128.509,208.043 128.699 C 208.043 129.368,208.779 129.034,209.087 128.225 C 209.648 126.750,210.427 126.381,210.699 127.463 C 211.054 128.876,212.019 130.176,212.560 129.968 C 212.823 129.867,213.001 129.970,212.954 130.197 C 212.907 130.424,213.150 130.671,213.494 130.747 C 213.883 130.832,214.120 130.671,214.120 130.321 C 214.120 130.012,213.919 129.754,213.673 129.748 C 213.426 129.742,213.508 129.573,213.854 129.371 C 214.200 129.170,214.642 129.104,214.838 129.224 C 215.369 129.553,215.287 133.332,214.745 133.469 C 214.500 133.531,213.754 133.762,213.088 133.981 C 212.063 134.319,211.749 134.280,211.044 133.725 C 210.349 133.179,209.985 133.129,208.858 133.426 C 207.705 133.731,207.181 133.645,205.283 132.843 C 204.060 132.326,202.806 131.903,202.495 131.903 C 202.184 131.903,201.688 131.326,201.394 130.621 C 200.859 129.341,200.856 129.339,199.111 129.579 C 198.150 129.712,197.087 129.664,196.747 129.474 C 196.324 129.238,195.745 129.290,194.905 129.641 C 194.231 129.922,192.612 130.211,191.306 130.282 L 188.933 130.411 186.423 133.135 C 185.043 134.632,183.708 135.853,183.456 135.847 C 183.204 135.841,182.904 136.117,182.788 136.461 C 182.673 136.805,181.851 138.673,180.962 140.612 C 178.782 145.368,178.708 147.265,180.620 149.381 C 181.608 150.475,181.948 151.165,181.948 152.076 C 181.948 154.851,188.059 156.536,192.449 154.971 C 193.520 154.589,194.535 154.551,196.917 154.801 C 198.613 154.980,200.095 155.129,200.211 155.132 C 200.897 155.153,201.225 157.013,200.715 157.998 C 199.909 159.557,200.061 160.946,201.213 162.536 C 203.722 166.000,203.886 167.235,202.475 172.033 C 201.594 175.025,201.578 175.233,202.115 176.680 C 202.475 177.652,202.645 179.108,202.589 180.746 C 202.521 182.759,202.634 183.444,203.128 183.991 C 203.472 184.373,203.757 184.914,203.761 185.193 C 203.766 185.473,204.076 186.377,204.450 187.202 L 205.132 188.703 206.498 188.206 C 207.249 187.933,208.427 187.619,209.115 187.509 C 211.882 187.065,216.622 181.664,216.622 178.955 C 216.622 178.263,217.110 177.030,217.849 175.856 C 218.524 174.783,219.497 173.234,220.012 172.413 C 221.292 170.372,221.518 168.676,220.740 166.950 L 220.113 165.560 221.291 163.477 C 221.939 162.331,223.222 160.268,224.143 158.892 C 228.513 152.358,228.831 150.648,225.609 151.022 L 223.519 151.264 222.241 149.771 C 220.795 148.082,218.962 144.522,217.367 140.304 C 216.292 137.463,216.291 137.451,217.169 138.447 C 217.654 138.999,218.052 139.858,218.052 140.357 C 218.052 140.856,218.937 142.724,220.018 144.509 C 221.099 146.294,221.986 147.928,221.989 148.140 C 222.016 150.007,227.007 148.588,229.625 145.971 C 231.525 144.070,230.076 138.480,228.138 140.234 C 227.364 140.934,225.948 139.784,225.224 137.868 C 224.441 135.795,225.574 135.396,226.429 137.444 C 226.975 138.750,227.595 139.005,228.384 138.248 C 228.759 137.889,228.930 137.930,229.260 138.458 C 230.309 140.140,230.313 140.142,231.705 139.711 C 233.462 139.167,234.675 139.927,235.208 141.905 C 235.419 142.689,235.878 143.483,236.227 143.670 C 236.577 143.857,237.041 144.591,237.259 145.301 C 238.616 149.721,242.717 154.985,242.717 152.307 C 242.717 151.977,242.885 151.538,243.091 151.332 C 243.352 151.071,243.335 150.671,243.034 150.011 C 242.459 148.747,243.039 146.862,244.606 144.903 L 245.789 143.425 247.220 144.760 C 248.007 145.494,248.590 146.277,248.515 146.501 C 248.441 146.724,248.784 147.091,249.278 147.316 C 249.950 147.622,250.235 148.096,250.409 149.198 C 250.537 150.008,250.933 151.314,251.288 152.100 C 252.205 154.127,252.579 157.798,251.840 157.515 C 251.541 157.400,251.296 157.422,251.296 157.565 C 251.296 158.360,253.072 164.085,253.648 165.147 C 254.021 165.836,254.337 166.559,254.351 166.756 C 254.475 168.507,256.033 169.794,258.028 169.794 C 258.776 169.794,259.130 169.999,259.264 170.509 C 259.405 171.051,259.751 171.224,260.691 171.224 C 262.135 171.224,263.205 170.310,262.209 169.928 C 261.728 169.743,261.701 169.634,262.079 169.400 C 262.466 169.161,262.444 168.993,261.965 168.514 C 261.272 167.821,260.590 168.112,260.590 169.101 C 260.590 170.283,259.278 169.900,258.036 168.354 C 257.400 167.562,256.508 166.821,256.053 166.707 C 255.364 166.534,255.228 166.265,255.228 165.080 C 255.228 164.300,254.817 162.634,254.315 161.378 C 253.607 159.610,253.487 158.938,253.779 158.392 C 254.374 157.280,254.232 156.327,253.083 153.709 C 251.937 151.097,251.802 150.492,252.368 150.492 C 252.565 150.492,252.726 150.884,252.726 151.364 C 252.726 152.407,253.192 152.763,254.159 152.456 C 256.068 151.851,255.917 149.438,253.797 146.642 C 253.011 145.605,252.378 144.479,252.391 144.139 C 252.408 143.674,252.494 143.720,252.737 144.325 C 253.064 145.139,254.286 145.428,254.684 144.785 C 254.801 144.596,254.586 144.131,254.207 143.752 C 253.527 143.071,253.536 143.056,254.909 142.516 L 256.300 141.970 256.300 139.304 C 256.300 137.370,256.153 136.516,255.764 136.193 C 255.455 135.936,255.228 135.157,255.228 134.350 C 255.228 132.675,254.547 130.939,253.193 129.164 C 252.586 128.368,252.403 127.922,252.728 128.028 C 253.021 128.124,253.636 128.874,254.093 129.696 C 254.948 131.231,255.709 131.598,256.073 130.649 C 256.336 129.964,255.781 128.478,255.117 128.090 C 254.838 127.926,254.530 127.310,254.434 126.720 C 253.664 122.025,251.817 117.306,250.526 116.733 C 249.807 116.414,248.973 115.778,248.673 115.320 C 248.373 114.862,247.653 114.392,247.074 114.276 C 245.595 113.981,243.855 111.568,244.069 110.110 C 244.292 108.587,244.690 108.751,245.897 110.865 C 246.917 112.650,252.786 116.949,253.385 116.350 C 253.719 116.016,251.890 112.928,251.117 112.519 C 250.724 112.310,249.798 111.600,249.061 110.940 C 248.323 110.281,247.460 109.741,247.143 109.741 C 246.664 109.741,246.608 109.473,246.808 108.140 C 246.982 106.975,246.883 106.192,246.440 105.260 C 245.927 104.180,245.899 103.760,246.257 102.564 C 246.491 101.785,246.573 100.971,246.440 100.756 C 246.049 100.123,250.123 102.837,253.967 105.770 C 270.652 118.500,280.717 137.915,280.579 157.105 C 280.544 161.867,280.167 163.995,279.240 164.643 C 278.764 164.977,278.466 165.561,278.471 166.151 L 278.479 167.113 279.198 166.220 L 279.916 165.326 279.690 166.756 C 278.239 175.908,272.954 187.571,266.896 194.985 C 265.411 196.802,264.653 197.069,263.539 196.164 C 263.203 195.892,263.092 196.033,263.092 196.736 C 263.092 197.268,262.799 197.854,262.410 198.096 C 261.875 198.430,261.770 198.797,261.921 199.797 C 262.077 200.832,262.025 200.990,261.649 200.637 C 260.999 200.028,254.286 203.646,254.910 204.269 C 255.672 205.032,257.007 204.776,258.417 203.598 C 259.863 202.390,260.978 201.778,259.862 202.805 C 253.509 208.653,245.099 214.274,237.812 217.542 L 234.874 218.860 233.523 217.747 C 232.780 217.135,231.886 216.386,231.537 216.083 C 229.224 214.073,222.722 213.425,219.124 214.846 C 215.924 216.110,215.985 216.105,214.969 215.151 C 213.232 213.519,209.686 213.892,203.845 216.320 C 199.856 217.979,199.073 218.004,195.052 216.602 C 193.145 215.937,191.401 215.552,190.597 215.619 L 189.276 215.728 189.169 217.781 L 189.062 219.834 187.839 219.323 C 187.167 219.042,185.445 218.700,184.014 218.562 C 181.716 218.342,181.237 218.162,179.912 217.020 C 175.665 213.363,173.310 210.893,172.231 208.966 C 171.579 207.802,170.820 206.775,170.544 206.684 C 169.688 206.399,170.350 209.017,171.693 211.233 C 173.251 213.801,173.489 214.477,172.834 214.477 C 172.552 214.477,172.157 214.784,171.956 215.160 C 171.729 215.584,171.014 215.940,170.067 216.099 C 169.229 216.240,168.096 216.731,167.550 217.189 C 165.094 219.251,160.503 217.617,150.979 211.292 C 106.202 181.556,109.669 123.881,157.782 98.140 C 167.895 92.730,178.108 89.764,192.136 88.165 C 195.244 87.811,206.250 87.997,210.369 88.473 M185.523 95.062 C 181.800 96.198,177.942 99.271,180.632 98.957 C 181.724 98.829,181.805 98.888,181.652 99.691 C 181.519 100.388,181.604 100.518,182.074 100.338 C 183.095 99.946,182.722 100.595,180.886 102.403 C 176.682 106.544,175.032 113.062,178.935 110.108 C 179.708 109.524,180.625 109.041,180.974 109.036 C 181.323 109.030,181.758 108.631,181.942 108.149 C 182.315 107.166,183.358 106.555,186.238 105.634 C 188.290 104.977,189.936 103.796,189.587 103.231 C 189.475 103.049,189.681 102.818,190.044 102.716 C 191.501 102.307,194.968 96.515,193.756 96.515 C 193.565 96.515,193.494 96.293,193.598 96.022 C 194.059 94.822,189.428 95.032,187.494 96.300 C 186.058 97.241,185.785 96.949,187.036 95.810 C 188.314 94.648,187.767 94.377,185.523 95.062 M174.630 96.284 C 174.197 96.601,174.052 96.989,174.212 97.405 C 174.446 98.015,174.486 98.015,175.164 97.402 C 176.428 96.258,175.972 95.303,174.630 96.284 M177.107 96.374 C 175.670 97.120,174.753 97.992,174.921 98.455 C 174.997 98.666,174.915 99.120,174.738 99.464 C 174.353 100.213,175.452 100.366,176.157 99.660 C 176.491 99.327,176.586 99.366,176.586 99.839 C 176.586 100.683,177.745 100.605,178.296 99.724 C 178.802 98.913,178.152 98.394,177.122 98.789 C 176.367 99.079,176.450 98.791,177.530 97.375 C 178.652 95.904,178.537 95.632,177.107 96.374 M178.573 96.952 C 177.838 98.000,177.871 98.302,178.718 98.302 C 179.387 98.302,180.161 97.356,180.161 96.538 C 180.161 95.867,179.148 96.131,178.573 96.952 M172.178 97.111 C 171.724 97.564,171.942 97.945,172.654 97.945 C 173.051 97.945,173.369 97.706,173.369 97.408 C 173.369 96.864,172.613 96.675,172.178 97.111 M172.995 98.690 C 172.776 99.100,172.667 99.506,172.753 99.592 C 173.081 99.920,174.021 99.295,174.194 98.635 C 174.441 97.691,173.507 97.734,172.995 98.690 M222.967 98.558 C 221.886 98.722,221.891 98.716,222.201 99.524 C 222.636 100.658,225.201 100.011,225.201 98.767 C 225.201 98.305,224.852 98.273,222.967 98.558 M168.722 100.467 C 167.641 101.009,166.545 101.644,166.287 101.878 C 165.925 102.207,165.580 102.204,164.766 101.867 C 164.187 101.627,163.232 101.527,162.643 101.645 C 161.891 101.795,161.573 101.720,161.573 101.392 C 161.573 100.272,159.914 99.952,158.532 100.806 C 157.328 101.550,157.110 101.577,155.792 101.142 C 153.836 100.496,153.203 100.945,153.064 103.075 C 152.961 104.637,152.894 104.736,151.938 104.736 C 151.304 104.736,150.200 105.280,149.008 106.178 C 147.956 106.972,146.734 107.713,146.291 107.826 C 145.849 107.939,145.487 108.180,145.487 108.361 C 145.487 109.019,146.582 109.085,148.225 108.526 C 150.183 107.858,150.492 107.829,150.492 108.307 C 150.492 109.119,146.400 115.158,144.935 116.509 C 144.062 117.313,143.110 118.542,142.818 119.240 C 142.527 119.937,141.353 121.503,140.209 122.720 C 138.205 124.853,138.106 125.049,137.498 128.118 C 137.151 129.870,136.625 131.771,136.330 132.341 C 135.784 133.397,136.410 136.558,137.269 137.089 C 137.438 137.193,137.487 137.824,137.379 138.490 C 137.237 139.367,137.453 140.278,138.162 141.790 C 138.700 142.939,139.252 144.361,139.388 144.951 C 139.559 145.690,139.836 146.006,140.281 145.966 C 140.694 145.930,141.068 146.285,141.319 146.949 C 141.591 147.669,141.957 147.989,142.507 147.989 C 143.203 147.989,143.317 148.203,143.412 149.687 C 143.512 151.240,143.604 151.395,144.500 151.498 C 146.250 151.699,146.639 152.782,145.730 154.915 C 144.332 158.197,144.653 163.098,146.516 166.916 C 147.326 168.577,147.990 170.266,147.992 170.669 C 147.993 171.108,148.422 171.647,149.059 172.009 C 149.657 172.349,150.436 173.291,150.833 174.154 C 152.163 177.041,153.351 180.394,153.351 181.262 C 153.351 181.739,153.673 183.254,154.066 184.629 C 154.459 186.004,154.781 187.877,154.781 188.791 C 154.781 191.986,156.503 195.271,160.037 198.822 C 161.758 200.551,163.309 201.966,163.484 201.966 C 163.831 201.966,163.851 202.041,162.306 197.676 C 160.787 193.384,160.828 190.957,162.489 186.953 C 163.182 185.282,163.989 182.792,164.282 181.420 C 164.904 178.508,165.536 177.397,166.744 177.094 C 167.580 176.884,167.608 176.782,167.416 174.675 C 167.243 172.772,167.366 172.101,168.327 169.696 C 169.752 166.128,169.749 164.582,168.315 161.891 L 167.193 159.786 165.462 159.786 C 163.225 159.786,159.843 156.479,159.796 154.245 C 159.787 153.829,159.318 153.267,158.677 152.901 C 158.069 152.556,157.488 151.952,157.386 151.561 C 157.284 151.169,156.969 150.849,156.688 150.849 C 156.406 150.849,155.596 150.286,154.887 149.598 C 153.453 148.205,153.086 148.110,152.079 148.872 C 151.697 149.160,150.691 149.402,149.842 149.408 C 148.994 149.414,147.989 149.586,147.608 149.789 C 146.305 150.487,145.487 149.641,145.487 147.596 C 145.487 146.607,145.336 145.516,145.152 145.172 C 144.952 144.798,144.943 143.990,145.130 143.164 C 145.630 140.945,144.672 139.815,143.325 141.034 C 142.132 142.114,142.242 140.594,143.534 138.159 C 144.215 136.875,144.772 135.589,144.772 135.301 C 144.772 134.773,145.264 134.601,147.720 134.273 C 149.222 134.072,149.974 135.273,149.045 136.392 C 148.696 136.813,148.689 137.035,149.015 137.362 C 149.778 138.124,150.647 137.153,150.963 135.185 C 151.213 133.630,151.543 133.074,153.198 131.420 C 154.265 130.352,155.139 129.166,155.139 128.783 C 155.139 128.387,155.524 127.910,156.032 127.679 C 156.524 127.455,156.926 127.031,156.926 126.736 C 156.926 126.236,163.033 122.967,163.967 122.967 C 164.184 122.967,164.552 122.171,164.786 121.197 C 165.356 118.822,166.220 118.057,166.220 119.928 C 166.220 122.010,167.603 120.858,168.623 117.928 C 169.059 116.673,169.582 115.591,169.784 115.523 C 169.987 115.456,170.152 114.883,170.152 114.250 C 170.152 113.527,170.561 112.543,171.250 111.606 C 172.320 110.151,172.381 109.383,171.426 109.383 C 170.843 109.383,169.966 108.377,170.278 108.066 C 170.403 107.941,170.825 108.129,171.217 108.483 C 171.910 109.110,171.961 109.092,173.118 107.829 C 174.027 106.837,174.405 106.630,174.725 106.951 C 175.321 107.546,175.510 107.228,176.016 104.769 C 176.622 101.832,175.552 101.662,173.548 104.378 C 173.059 105.042,171.816 105.997,170.786 106.501 C 168.856 107.446,168.808 107.504,164.611 114.062 C 162.862 116.794,162.522 116.937,161.990 115.161 C 161.114 112.239,162.107 109.815,164.579 108.837 C 165.383 108.518,166.524 107.803,167.113 107.248 C 167.801 106.601,168.763 106.149,169.794 105.989 C 171.146 105.780,171.732 105.398,173.458 103.604 C 175.929 101.038,176.106 100.284,174.173 100.569 C 171.006 101.036,171.038 101.040,171.157 100.179 C 171.292 99.209,171.211 99.219,168.722 100.467 M209.885 101.359 C 209.953 101.709,210.225 102.068,210.490 102.156 C 210.798 102.259,210.926 102.087,210.847 101.679 C 210.779 101.329,210.507 100.970,210.243 100.882 C 209.935 100.780,209.806 100.952,209.885 101.359 M187.292 106.327 C 186.415 107.204,186.933 107.954,188.416 107.954 C 189.781 107.954,190.789 106.912,190.145 106.166 C 189.872 105.850,187.644 105.976,187.292 106.327 M129.520 111.081 C 130.729 116.549,130.774 116.189,128.450 119.614 L 126.363 122.691 126.256 120.505 C 126.122 117.741,125.790 117.759,124.388 120.607 C 123.497 122.416,123.219 123.519,123.060 125.880 C 122.908 128.119,122.572 129.535,121.717 131.546 C 121.089 133.021,120.216 135.313,119.776 136.640 C 118.794 139.603,118.868 139.610,117.908 136.461 C 115.406 128.249,117.163 122.577,125.290 112.624 C 129.097 107.962,128.850 108.052,129.520 111.081 M275.246 113.327 C 281.728 121.300,283.588 125.977,282.802 132.333 C 282.339 136.072,281.301 139.459,280.917 138.478 C 280.772 138.106,279.902 135.952,278.985 133.691 C 277.698 130.518,277.251 128.887,277.026 126.542 C 276.467 120.721,273.817 115.883,273.815 120.677 L 273.813 123.146 273.077 121.938 C 272.672 121.273,271.683 119.839,270.879 118.751 L 269.417 116.772 269.835 114.083 C 270.297 111.111,270.955 108.657,271.281 108.689 C 271.397 108.701,273.181 110.788,275.246 113.327 M191.644 113.021 C 191.446 113.554,191.508 114.429,191.818 115.460 C 192.084 116.345,192.214 117.350,192.106 117.694 C 191.880 118.412,192.492 118.507,193.900 117.971 C 195.074 117.525,195.076 116.543,193.905 115.443 C 193.242 114.820,193.022 114.291,193.100 113.509 C 193.238 112.132,192.116 111.756,191.644 113.021 M189.097 116.380 C 189.097 117.553,190.293 117.449,190.463 116.261 C 190.550 115.653,190.399 115.460,189.837 115.460 C 189.281 115.460,189.097 115.688,189.097 116.380 M290.430 122.073 C 294.194 129.886,294.475 139.191,291.280 150.223 C 290.363 153.388,290.045 154.066,289.480 154.066 C 286.979 154.066,285.110 157.350,286.262 159.720 C 286.484 160.176,286.152 160.688,284.891 161.836 L 283.228 163.351 283.397 159.537 C 283.557 155.937,283.645 155.579,284.958 153.144 C 286.897 149.551,288.120 144.547,288.370 139.194 C 288.652 133.148,288.163 133.355,286.352 140.050 C 285.516 143.139,284.465 146.631,284.015 147.811 L 283.198 149.955 282.936 148.168 C 282.792 147.185,282.561 145.818,282.423 145.130 C 282.222 144.126,282.405 143.383,283.346 141.376 C 285.968 135.791,286.652 128.141,284.967 123.264 L 284.143 120.880 285.503 118.689 L 286.863 116.497 287.872 117.676 C 288.426 118.325,289.577 120.304,290.430 122.073 M114.662 119.054 C 115.356 120.205,115.732 121.209,115.589 121.531 C 113.254 126.791,113.699 135.455,116.610 141.426 L 117.703 143.668 117.183 146.812 L 116.663 149.955 115.223 145.487 C 114.430 143.029,113.399 139.531,112.931 137.712 C 111.737 133.078,111.383 133.520,111.641 139.321 C 111.921 145.610,113.240 150.623,115.598 154.359 C 116.343 155.539,116.481 156.255,116.588 159.489 L 116.711 163.247 115.046 161.812 C 113.587 160.555,113.421 160.270,113.705 159.522 C 114.592 157.189,112.887 154.066,110.727 154.066 C 109.940 154.066,109.759 153.756,108.899 150.938 C 105.019 138.232,106.006 125.999,111.526 118.380 C 112.876 116.517,113.170 116.580,114.662 119.054 M255.139 122.174 C 254.290 122.282,253.678 122.963,254.424 122.969 C 254.571 122.970,254.966 123.453,255.301 124.042 C 256.132 125.503,256.570 125.384,256.593 123.689 C 256.615 122.093,256.523 121.996,255.139 122.174 M213.963 123.514 C 214.814 122.870,215.192 122.833,215.192 123.394 C 215.192 123.629,215.623 124.271,216.149 124.820 C 217.340 126.063,217.351 126.054,214.209 126.269 L 211.618 126.446 211.618 124.465 L 211.618 122.485 212.444 123.261 C 213.187 123.959,213.341 123.984,213.963 123.514 M222.503 123.414 C 222.599 123.856,222.722 124.620,222.777 125.112 C 222.846 125.727,223.128 126.041,223.682 126.120 C 224.494 126.235,224.541 126.402,224.639 129.491 C 224.671 130.481,223.621 130.412,222.474 129.348 C 221.557 128.498,220.089 124.228,220.388 123.283 C 220.704 122.288,222.279 122.385,222.503 123.414 M257.779 128.239 C 257.798 128.977,257.692 130.579,257.544 131.800 C 257.283 133.963,257.300 134.030,258.219 134.449 C 259.424 134.998,259.765 134.647,259.278 133.357 C 259.055 132.766,259.022 132.132,259.200 131.852 C 259.726 131.020,259.545 129.272,258.806 128.061 C 257.898 126.571,257.739 126.599,257.779 128.239 M208.960 129.721 C 208.852 129.896,209.171 130.142,209.670 130.268 C 210.766 130.543,211.565 130.172,210.851 129.720 C 210.216 129.317,209.209 129.318,208.960 129.721 M257.169 140.313 C 256.987 141.280,257.072 141.765,257.497 142.190 C 258.236 142.929,258.346 142.781,258.498 140.848 C 258.666 138.707,257.554 138.259,257.169 140.313 M147.650 140.106 C 147.234 140.369,147.314 140.516,148.058 140.855 C 148.567 141.087,149.189 141.661,149.440 142.131 C 149.692 142.600,150.192 142.985,150.552 142.985 C 150.912 142.985,151.206 143.206,151.206 143.477 C 151.206 144.474,152.187 144.897,153.364 144.409 C 154.916 143.767,154.455 142.947,152.279 142.477 C 151.780 142.370,151.028 141.728,150.578 141.026 C 149.757 139.747,148.729 139.424,147.650 140.106 M149.507 143.789 C 149.588 144.035,150.002 144.287,150.428 144.350 C 151.008 144.435,151.149 144.323,150.988 143.903 C 150.733 143.240,149.289 143.128,149.507 143.789 M258.445 146.390 C 258.445 147.310,259.842 150.970,260.411 151.538 C 261.092 152.220,261.201 148.424,260.536 147.161 C 259.840 145.839,258.445 145.324,258.445 146.390 M104.312 155.008 C 105.844 156.774,106.524 157.854,106.524 158.520 C 106.524 159.686,108.284 161.573,109.372 161.573 C 111.264 161.573,117.423 167.818,117.923 170.243 C 118.607 173.564,120.354 178.820,122.079 182.746 C 123.373 185.694,123.491 186.145,122.850 185.696 C 122.434 185.404,121.485 185.165,120.743 185.165 C 119.800 185.165,119.392 185.008,119.392 184.646 C 119.392 183.583,118.536 182.307,117.253 181.458 C 115.744 180.459,111.633 174.617,108.949 169.658 L 107.186 166.399 107.390 168.422 C 107.658 171.068,109.371 175.500,111.490 179.025 C 113.133 181.759,113.168 181.874,112.569 182.614 C 111.721 183.661,111.861 183.779,109.380 179.949 C 103.628 171.069,100.639 160.994,101.123 152.113 C 101.167 151.309,100.867 151.037,104.312 155.008 M298.738 155.943 C 298.345 164.378,295.439 172.656,289.999 180.834 L 288.006 183.831 287.449 182.800 C 286.775 181.552,286.688 181.890,288.421 179.036 C 290.769 175.171,292.772 169.753,292.755 167.306 C 292.751 166.640,292.316 167.208,291.122 169.437 C 289.145 173.128,285.177 179.099,283.879 180.336 C 283.358 180.833,282.408 181.708,281.769 182.281 C 281.029 182.945,280.608 183.657,280.608 184.244 C 280.608 185.072,280.470 185.165,279.257 185.165 C 278.515 185.165,277.550 185.416,277.113 185.722 C 276.088 186.440,276.074 186.501,277.758 182.908 C 279.433 179.333,281.414 173.468,282.066 170.150 C 282.408 168.416,282.753 167.650,283.436 167.115 C 283.939 166.721,285.559 165.316,287.036 163.994 C 288.514 162.671,290.015 161.585,290.372 161.581 C 291.829 161.563,293.476 159.762,293.476 158.189 C 293.476 157.688,298.377 151.564,298.778 151.564 C 298.868 151.564,298.850 153.534,298.738 155.943 M260.777 153.332 C 260.071 154.897,260.259 155.970,261.207 155.787 C 261.999 155.634,262.549 154.084,262.243 152.865 C 261.915 151.558,261.521 151.683,260.777 153.332 M242.877 153.503 C 242.542 155.287,243.152 155.897,243.991 154.617 C 244.595 153.696,244.591 153.636,243.872 152.917 L 243.127 152.172 242.877 153.503 M110.746 157.397 C 110.583 158.536,108.824 158.693,108.477 157.599 C 108.298 157.038,108.410 156.665,108.853 156.341 C 109.728 155.701,110.894 156.352,110.746 157.397 M291.143 156.431 C 291.796 157.084,291.725 157.606,290.912 158.119 C 289.662 158.907,288.557 157.341,289.616 156.282 C 290.184 155.715,290.453 155.741,291.143 156.431 M257.462 157.983 C 255.701 160.035,256.240 165.170,258.164 164.666 C 258.685 164.530,258.803 164.724,258.803 165.717 C 258.803 168.725,260.771 166.981,261.060 163.718 C 261.172 162.440,261.373 161.032,261.505 160.590 C 261.686 159.986,261.600 159.786,261.162 159.786 C 260.447 159.786,259.178 161.784,259.120 163.003 C 259.090 163.633,259.028 163.708,258.911 163.257 C 258.820 162.905,258.999 161.871,259.310 160.959 C 260.666 156.978,259.683 155.394,257.462 157.983 M262.735 161.930 C 262.735 163.394,262.848 163.717,263.360 163.717 C 264.094 163.716,264.360 161.892,263.783 160.814 C 263.155 159.640,262.735 160.087,262.735 161.930 M267.739 161.369 C 267.739 161.941,268.685 163.003,269.194 163.003 C 269.622 163.003,269.613 162.869,269.112 161.768 C 268.667 160.794,267.739 160.523,267.739 161.369 M264.522 162.843 C 264.522 162.951,264.779 164.170,265.093 165.551 C 265.407 166.932,265.604 168.693,265.530 169.465 C 265.381 171.036,265.829 171.275,266.838 170.160 C 267.542 169.382,268.094 169.505,268.102 170.441 C 268.105 170.774,268.266 171.287,268.459 171.582 C 268.947 172.324,269.563 171.380,269.333 170.244 C 269.243 169.800,269.084 169.031,268.981 168.534 C 268.810 167.714,268.878 167.653,269.714 167.863 L 270.635 168.094 270.528 165.820 C 270.383 162.762,269.169 162.138,269.169 165.121 C 269.169 167.308,268.540 167.554,268.385 165.428 C 268.284 164.038,268.183 163.903,267.080 163.679 C 266.423 163.546,265.707 163.259,265.490 163.041 C 265.071 162.623,264.522 162.510,264.522 162.843 M262.735 166.577 C 262.735 167.116,262.921 167.309,263.360 167.224 C 263.704 167.158,263.986 166.867,263.986 166.577 C 263.986 166.288,263.704 165.997,263.360 165.930 C 262.921 165.846,262.735 166.039,262.735 166.577 M272.173 170.068 C 271.689 170.393,271.564 173.012,272.033 173.012 C 272.220 173.012,272.471 172.569,272.591 172.029 C 272.712 171.488,272.886 170.764,272.980 170.420 C 273.157 169.765,272.835 169.624,272.173 170.068 M225.613 171.315 C 225.217 171.955,224.253 172.880,223.469 173.371 C 222.515 173.969,221.976 174.602,221.836 175.290 C 221.525 176.814,221.582 181.879,221.912 182.082 C 222.899 182.692,225.319 178.631,226.066 175.110 C 226.185 174.549,226.575 174.088,227.033 173.969 C 227.683 173.799,227.766 173.593,227.573 172.630 C 227.448 172.004,227.346 171.191,227.346 170.822 C 227.346 169.769,226.403 170.037,225.613 171.315 M263.463 172.559 C 263.175 172.672,262.432 173.303,261.812 173.960 C 261.192 174.618,260.349 175.156,259.939 175.156 C 259.433 175.156,258.995 175.575,258.576 176.459 C 258.208 177.233,257.130 178.356,255.916 179.229 C 253.692 180.829,252.430 182.916,251.463 186.595 C 250.581 189.954,251.059 190.657,253.644 189.804 C 256.366 188.906,257.652 190.382,257.212 193.901 L 256.968 195.853 258.101 195.528 C 262.155 194.365,267.448 186.495,267.355 181.769 C 267.327 180.393,267.483 178.814,267.701 178.261 C 268.157 177.100,268.240 172.654,267.805 172.654 C 267.644 172.654,267.146 173.539,266.698 174.620 C 265.746 176.918,265.619 177.035,264.761 176.407 C 264.154 175.964,264.150 175.864,264.694 174.812 C 265.604 173.052,265.004 171.953,263.463 172.559 M227.241 176.950 C 227.093 177.515,227.192 177.672,227.642 177.585 C 228.313 177.456,228.457 176.539,227.838 176.333 C 227.617 176.260,227.349 176.537,227.241 176.950 M128.754 179.352 C 128.902 180.123,130.116 180.423,130.116 179.689 C 130.116 179.401,129.862 179.067,129.551 178.948 C 128.711 178.626,128.622 178.671,128.754 179.352 M107.948 185.380 C 110.402 186.227,112.468 187.091,112.538 187.301 C 112.712 187.822,114.549 188.740,115.419 188.740 C 115.855 188.740,116.520 189.325,117.147 190.259 C 117.707 191.095,118.684 192.024,119.318 192.325 C 120.746 193.002,123.445 196.549,124.036 198.525 C 124.633 200.520,125.972 203.140,127.701 205.693 C 129.099 207.758,128.987 207.680,123.319 202.655 C 115.308 195.553,114.745 195.078,114.747 195.415 C 114.751 196.458,118.672 201.581,122.567 205.633 L 125.577 208.764 124.004 208.200 C 123.139 207.889,120.661 207.189,118.499 206.644 L 114.567 205.652 112.099 202.826 C 106.329 196.217,99.582 182.157,102.860 183.572 C 103.204 183.720,105.493 184.534,107.948 185.380 M297.766 183.896 C 297.766 190.168,287.776 205.313,283.026 206.240 C 281.794 206.481,279.351 207.138,277.596 207.700 L 274.405 208.723 276.919 206.149 C 280.926 202.046,285.677 195.835,285.184 195.342 C 285.095 195.253,283.904 196.184,282.537 197.411 C 274.643 204.499,271.211 207.391,271.829 206.434 C 273.745 203.468,274.946 201.197,275.793 198.940 C 276.945 195.871,278.935 193.095,280.431 192.469 C 281.602 191.980,282.284 191.324,282.917 190.077 C 283.333 189.258,283.940 188.872,285.255 188.592 C 285.746 188.487,286.617 187.993,287.190 187.495 C 287.769 186.992,289.755 186.110,291.659 185.509 C 293.543 184.915,295.567 184.206,296.157 183.933 C 297.563 183.282,297.766 183.277,297.766 183.896 M115.967 183.952 C 116.680 184.226,116.699 185.297,116.001 185.876 C 114.937 186.760,113.508 185.331,114.392 184.267 C 114.878 183.681,115.129 183.631,115.967 183.952 M285.593 184.249 C 286.046 184.794,285.552 186.238,284.914 186.238 C 283.721 186.238,282.928 184.751,283.706 183.974 C 284.116 183.563,285.149 183.713,285.593 184.249 M120.972 187.527 C 121.806 187.847,121.687 189.359,120.805 189.639 C 119.500 190.053,118.527 188.676,119.464 187.739 C 119.951 187.252,120.174 187.221,120.972 187.527 M280.581 187.976 C 281.046 188.845,280.282 189.940,279.337 189.758 C 278.616 189.619,278.265 188.699,278.600 187.825 C 278.882 187.091,280.160 187.188,280.581 187.976 M131.848 198.380 C 135.961 203.210,139.672 206.734,145.081 210.942 C 146.152 211.776,146.235 211.961,145.853 212.674 L 145.426 213.472 144.534 212.634 C 143.309 211.483,140.887 211.470,139.675 212.609 L 138.809 213.422 135.572 210.185 C 129.261 203.874,125.851 197.375,125.832 191.622 L 125.827 190.036 128.006 193.231 C 129.204 194.988,130.933 197.305,131.848 198.380 M274.050 192.605 C 273.498 198.542,270.743 203.569,264.563 209.919 L 261.171 213.404 260.316 212.600 C 259.113 211.470,256.687 211.487,255.466 212.634 L 254.574 213.472 254.135 212.651 C 253.737 211.908,253.809 211.743,254.897 210.919 C 261.928 205.596,270.723 196.162,273.324 191.153 C 274.120 189.620,274.295 189.970,274.050 192.605 M255.263 197.705 C 253.875 199.583,254.889 200.252,256.496 198.518 C 257.551 197.380,257.584 197.100,256.693 196.867 C 256.234 196.747,255.771 197.018,255.263 197.705 M115.908 209.108 C 123.125 210.685,136.753 216.444,136.102 217.642 C 136.033 217.769,135.701 218.477,135.364 219.215 L 134.752 220.557 132.242 219.293 C 129.020 217.671,124.050 216.013,121.537 215.722 C 119.064 215.435,118.962 215.361,127.346 219.926 C 133.550 223.303,134.769 224.123,133.601 224.132 C 133.356 224.134,132.294 224.536,131.242 225.026 L 129.330 225.916 126.595 225.233 C 120.760 223.774,117.663 222.124,112.404 217.673 C 108.383 214.268,103.311 208.482,103.984 208.066 C 104.631 207.666,112.431 208.348,115.908 209.108 M295.995 208.704 C 292.515 214.957,281.753 222.986,274.132 225.013 L 270.695 225.928 268.770 225.032 C 267.712 224.539,266.644 224.134,266.399 224.132 C 265.201 224.123,266.470 223.256,272.460 219.991 C 281.146 215.256,280.845 215.467,278.573 215.688 C 276.251 215.914,271.067 217.634,267.712 219.292 C 264.728 220.767,264.879 220.734,264.879 219.907 C 264.879 219.550,264.552 218.907,264.151 218.477 L 263.423 217.696 265.134 216.598 C 272.181 212.078,282.889 208.622,291.510 208.085 C 296.017 207.804,296.461 207.866,295.995 208.704 M256.251 222.223 C 259.031 226.974,261.305 230.999,261.305 231.166 C 261.305 231.557,254.938 235.095,250.760 237.027 C 217.357 252.469,177.333 251.631,144.772 234.807 C 137.417 231.007,137.592 232.535,143.388 222.723 C 146.109 218.115,148.469 214.212,148.632 214.049 C 148.796 213.885,150.939 214.924,153.394 216.357 C 182.026 233.066,224.078 232.241,249.687 214.468 C 250.474 213.922,251.135 213.500,251.157 213.530 C 251.179 213.559,253.471 217.471,256.251 222.223 M143.010 215.043 C 143.351 215.454,143.376 215.773,143.104 216.205 C 142.626 216.963,141.563 216.973,141.090 216.224 C 140.237 214.871,141.978 213.800,143.010 215.043 M258.827 215.043 C 259.168 215.454,259.194 215.773,258.922 216.205 C 258.444 216.963,257.380 216.973,256.908 216.224 C 256.055 214.871,257.796 213.800,258.827 215.043 M139.300 219.352 C 139.538 219.974,139.073 220.964,138.443 221.174 C 137.702 221.421,136.878 220.206,137.279 219.457 C 137.729 218.615,138.992 218.549,139.300 219.352 M262.624 219.352 C 262.863 219.974,262.397 220.964,261.768 221.174 C 261.026 221.421,260.202 220.206,260.603 219.457 C 261.054 218.615,262.316 218.549,262.624 219.352 M148.168 225.457 C 146.399 228.935,144.911 231.870,144.861 231.977 C 144.753 232.214,147.951 233.946,148.124 233.744 C 148.411 233.410,154.602 221.066,154.602 220.829 C 154.602 220.585,151.998 219.120,151.578 219.128 C 151.472 219.130,149.937 221.978,148.168 225.457 M243.610 221.397 C 242.824 221.818,242.116 222.200,242.037 222.246 C 241.959 222.292,242.864 224.223,244.050 226.536 C 245.236 228.849,246.657 231.787,247.209 233.065 C 247.761 234.343,248.246 235.439,248.287 235.501 C 248.388 235.651,255.943 232.026,255.943 231.826 C 255.943 231.740,255.761 231.270,255.539 230.782 L 255.134 229.895 253.276 230.944 C 252.253 231.521,251.254 231.993,251.056 231.993 C 250.690 231.993,245.576 221.696,245.576 220.957 C 245.576 220.426,245.314 220.485,243.610 221.397 M157.672 225.290 C 157.219 226.716,156.125 229.651,155.241 231.814 C 154.357 233.977,153.560 235.928,153.470 236.150 C 153.381 236.373,153.807 236.729,154.418 236.942 C 155.258 237.235,155.562 237.223,155.665 236.895 C 156.597 233.936,158.522 228.715,158.728 228.588 C 158.875 228.497,159.832 230.473,160.855 232.978 C 163.628 239.766,164.002 240.572,164.383 240.572 C 164.575 240.572,164.969 240.663,165.260 240.775 C 165.647 240.923,165.957 240.469,166.418 239.077 C 166.764 238.031,167.906 235.004,168.956 232.350 C 171.193 226.694,171.105 227.211,169.927 226.675 C 168.785 226.155,169.040 225.794,167.682 229.848 C 165.589 236.093,166.021 236.137,163.232 229.395 C 161.310 224.748,160.607 223.414,159.915 223.099 C 158.581 222.491,158.554 222.517,157.672 225.290 M119.117 225.891 C 120.350 226.445,122.289 227.167,123.426 227.494 C 124.564 227.821,125.416 228.215,125.321 228.370 C 124.937 228.990,120.494 230.958,118.141 231.550 C 114.827 232.382,114.827 232.544,118.150 234.954 C 122.810 238.333,130.535 241.644,133.758 241.644 C 134.357 241.644,134.406 242.087,134.406 247.542 L 134.406 253.441 119.035 253.441 C 110.581 253.441,103.664 253.376,103.664 253.297 C 103.664 253.087,114.430 223.998,114.628 223.675 C 114.720 223.524,115.263 223.734,115.835 224.141 C 116.407 224.549,117.884 225.336,119.117 225.891 M290.721 238.070 C 293.584 245.836,296.036 252.471,296.170 252.815 C 296.399 253.405,295.533 253.441,281.003 253.441 L 265.594 253.441 265.594 247.629 L 265.594 241.817 268.455 241.174 C 273.507 240.038,277.415 238.156,282.499 234.408 C 285.303 232.341,285.318 232.421,281.983 231.574 C 279.385 230.915,276.326 229.633,275.098 228.689 C 274.463 228.201,274.642 228.089,277.557 227.140 C 279.286 226.577,281.686 225.534,282.889 224.820 C 284.092 224.107,285.175 223.620,285.295 223.737 C 285.416 223.854,287.857 230.304,290.721 238.070 M231.919 225.702 C 225.588 227.406,223.462 235.058,228.115 239.386 C 230.048 241.184,234.146 241.501,237.179 240.089 C 246.223 235.877,241.554 223.109,231.919 225.702 M137.623 226.441 C 137.623 226.533,136.812 227.981,135.822 229.658 L 134.021 232.708 131.979 232.743 C 130.856 232.763,129.535 232.894,129.044 233.033 L 128.150 233.288 128.927 233.710 C 130.295 234.455,134.151 235.199,136.729 235.216 C 139.756 235.235,143.891 237.169,142.815 238.062 C 140.384 240.080,130.762 238.706,124.665 235.470 C 121.551 233.818,121.436 233.652,123.021 233.100 C 123.641 232.884,125.370 231.925,126.864 230.968 C 131.872 227.762,137.623 225.342,137.623 226.441 M267.560 227.843 C 268.937 228.489,271.269 229.793,272.744 230.740 C 274.218 231.688,276.040 232.739,276.793 233.077 L 278.162 233.691 277.151 234.405 C 271.771 238.201,258.546 240.547,256.964 237.986 C 256.398 237.072,260.482 235.220,263.092 235.208 C 265.644 235.197,269.737 234.437,271.027 233.735 L 271.850 233.288 270.956 233.033 C 270.465 232.894,269.097 232.760,267.918 232.738 L 265.773 232.696 264.164 229.807 C 263.280 228.218,262.495 226.751,262.421 226.547 C 262.188 225.909,264.890 226.590,267.560 227.843 M234.650 227.492 C 238.326 229.028,239.551 235.744,236.606 238.222 C 233.565 240.781,229.855 237.845,229.271 232.418 C 228.887 228.841,231.704 226.261,234.650 227.492 M173.369 228.210 C 173.369 228.489,173.276 228.959,173.163 229.254 C 173.002 229.674,173.377 229.842,174.902 230.033 L 176.847 230.276 176.388 232.654 C 175.819 235.599,174.501 241.607,174.251 242.395 C 174.108 242.847,174.385 243.031,175.473 243.205 C 176.248 243.329,177.099 243.514,177.366 243.616 C 177.737 243.758,178.133 242.306,179.061 237.395 L 180.272 230.988 181.914 231.487 C 184.063 232.139,183.988 232.158,184.169 230.925 C 184.313 229.939,184.227 229.840,183.047 229.636 C 182.345 229.515,179.947 229.031,177.719 228.560 C 172.936 227.548,173.369 227.583,173.369 228.210 M214.477 229.928 C 213.396 230.122,212.461 230.327,212.399 230.385 C 212.338 230.442,212.689 232.958,213.180 235.977 C 213.671 238.996,214.176 242.247,214.303 243.203 C 214.529 244.914,214.549 244.936,215.622 244.722 C 216.221 244.602,217.066 244.504,217.499 244.504 L 218.287 244.504 217.697 241.378 L 217.107 238.252 218.911 237.790 C 221.825 237.044,223.188 235.163,222.788 232.438 C 222.383 229.682,219.950 228.947,214.477 229.928 M186.821 233.299 C 186.692 235.038,186.408 238.278,186.190 240.500 C 185.973 242.721,185.892 244.635,186.009 244.752 C 186.243 244.986,193.740 245.713,193.902 245.518 C 193.957 245.452,194.107 244.955,194.237 244.415 L 194.473 243.432 191.917 243.432 L 189.361 243.432 189.583 242.091 C 189.705 241.354,189.806 240.213,189.808 239.555 L 189.812 238.360 191.689 238.598 C 192.721 238.729,193.858 238.920,194.216 239.021 C 194.767 239.178,194.849 239.022,194.752 238.012 L 194.638 236.819 192.356 236.711 L 190.074 236.603 190.278 234.618 C 190.529 232.195,190.284 232.375,192.841 232.729 C 194.015 232.892,194.998 232.994,195.025 232.956 C 195.987 231.591,195.468 230.998,193.115 230.771 C 191.790 230.644,189.885 230.449,188.881 230.338 L 187.057 230.136 186.821 233.299 M198.976 238.338 C 199.246 247.059,198.913 245.892,201.073 245.679 L 202.862 245.502 202.743 242.590 C 202.610 239.307,202.534 239.281,204.968 243.342 L 206.307 245.576 208.426 245.576 C 211.002 245.576,211.004 245.825,208.400 242.094 C 206.316 239.106,205.860 238.070,206.629 238.070 C 207.701 238.070,208.758 236.294,208.758 234.495 C 208.758 231.406,207.959 230.920,202.875 230.920 L 198.747 230.920 198.976 238.338 M218.759 232.335 C 219.471 233.666,219.203 235.499,218.200 236.157 C 217.027 236.925,216.789 236.586,216.461 233.683 C 216.142 230.863,217.534 230.047,218.759 232.335 M204.621 232.912 C 205.588 233.879,205.470 236.180,204.407 237.087 C 202.808 238.451,202.324 237.973,202.324 235.031 C 202.324 232.149,203.122 231.413,204.621 232.912 M146.869 240.116 C 147.324 240.929,146.744 242.002,145.850 242.002 C 144.946 242.002,144.371 240.964,144.815 240.134 C 145.248 239.325,146.420 239.314,146.869 240.116 M254.662 239.717 C 255.510 240.042,255.376 241.549,254.473 241.836 C 253.366 242.187,252.528 241.251,253.061 240.256 C 253.489 239.455,253.752 239.367,254.662 239.717 M153.887 242.287 C 155.853 243.071,159.342 244.326,161.641 245.078 C 164.218 245.921,165.879 246.655,165.976 246.993 C 166.063 247.295,166.624 248.870,167.224 250.492 L 168.315 253.441 152.790 253.441 L 137.265 253.441 137.265 247.768 L 137.265 242.095 138.606 241.874 C 141.002 241.478,141.848 241.593,142.088 242.350 C 143.189 245.818,149.419 244.716,149.419 241.053 C 149.419 240.746,149.620 240.578,149.866 240.679 C 150.112 240.781,151.921 241.504,153.887 242.287 M250.581 241.493 C 250.581 244.720,256.278 245.583,257.653 242.565 C 258.101 241.581,258.820 241.448,261.394 241.874 L 262.735 242.095 262.735 247.768 L 262.735 253.441 247.147 253.441 C 232.444 253.441,231.573 253.405,231.810 252.815 C 231.949 252.471,232.543 250.883,233.131 249.286 L 234.200 246.383 238.726 244.919 C 241.216 244.114,244.781 242.820,246.649 242.043 C 250.758 240.335,250.581 240.359,250.581 241.493 M198.391 264.522 C 198.391 271.993,198.329 278.105,198.253 278.105 C 198.176 278.105,197.466 277.073,196.675 275.810 L 195.236 273.515 194.848 263.431 C 194.634 257.885,194.459 252.805,194.459 252.143 L 194.459 250.938 196.425 250.938 L 198.391 250.938 198.391 264.522 M205.409 255.317 C 205.290 257.726,205.088 262.830,204.960 266.661 L 204.728 273.626 203.168 275.952 L 201.609 278.277 201.609 264.607 L 201.609 250.938 203.618 250.938 L 205.627 250.938 205.409 255.317 M178.731 257.015 C 178.731 257.726,178.493 257.730,135.836 257.730 C 93.178 257.730,92.940 257.726,92.940 257.015 C 92.940 256.304,93.178 256.300,135.836 256.300 C 178.493 256.300,178.731 256.304,178.731 257.015 M307.060 257.015 C 307.060 257.726,306.822 257.730,263.986 257.730 C 221.150 257.730,220.912 257.726,220.912 257.015 C 220.912 256.304,221.150 256.300,263.986 256.300 C 306.822 256.300,307.060 256.304,307.060 257.015 M170.570 261.517 C 166.864 264.113,155.217 268.560,148.701 269.868 C 133.331 272.953,116.123 270.104,102.413 262.205 L 100.268 260.969 135.826 260.958 C 168.468 260.948,171.317 260.994,170.570 261.517 M298.563 261.663 C 285.058 269.897,266.751 273.048,251.117 269.830 C 244.580 268.484,228.776 262.339,228.776 261.143 C 228.776 261.035,244.741 260.948,264.254 260.949 L 299.732 260.950 298.563 261.663 M26.999 313.023 C 27.304 325.849,26.452 352.443,25.425 362.109 L 25.178 364.433 28.533 364.433 L 31.887 364.433 31.682 362.466 C 31.319 358.991,30.998 320.151,31.323 319.014 L 31.635 317.921 35.184 321.695 C 51.300 338.838,68.272 357.438,73.607 363.807 C 74.669 365.075,75.447 365.684,76.004 365.684 L 76.829 365.684 76.763 344.504 C 76.702 325.049,76.876 318.652,77.789 306.881 L 78.010 304.021 74.884 304.000 L 71.757 303.979 71.979 306.681 C 72.101 308.167,72.292 318.472,72.405 329.580 L 72.610 349.777 69.498 346.559 C 63.778 340.645,51.012 327.017,39.864 314.924 C 30.849 305.146,28.634 302.928,27.789 302.835 L 26.753 302.721 26.999 313.023 M315.460 303.006 C 296.890 305.947,286.301 321.535,289.686 340.950 C 293.052 360.255,313.702 370.701,334.942 363.842 C 360.718 355.519,362.609 316.005,337.732 305.552 C 332.384 303.305,321.458 302.056,315.460 303.006 M0.179 334.227 L 0.179 364.433 4.542 364.433 L 8.905 364.433 8.653 363.539 C 8.321 362.363,8.324 306.079,8.657 304.900 L 8.913 303.991 4.546 304.006 L 0.179 304.021 0.179 334.227 M88.472 306.828 L 88.472 309.634 90.514 309.403 C 95.301 308.862,106.701 308.565,106.990 308.975 C 107.309 309.430,107.013 360.742,106.678 363.003 L 106.466 364.433 110.980 364.433 L 115.495 364.433 115.210 356.032 C 114.928 347.740,114.873 308.958,115.143 308.688 C 115.324 308.507,128.504 309.082,131.608 309.406 L 133.993 309.655 133.661 308.179 C 133.472 307.337,133.459 306.126,133.631 305.362 L 133.932 304.021 111.202 304.021 L 88.472 304.021 88.472 306.828 M144.324 306.345 C 144.675 309.373,144.675 357.847,144.324 361.573 L 144.055 364.433 160.099 364.433 L 176.142 364.433 176.154 361.636 C 176.164 359.464,176.061 358.880,175.695 359.020 C 174.777 359.373,166.662 359.934,159.751 360.123 L 152.747 360.314 152.513 355.436 C 152.211 349.151,152.212 338.391,152.513 336.190 L 152.748 334.479 160.109 334.717 C 164.158 334.848,168.878 335.056,170.599 335.178 L 173.727 335.402 173.727 332.453 C 173.727 330.018,173.636 329.538,173.206 329.703 C 172.328 330.040,153.028 330.806,152.737 330.515 C 152.404 330.182,152.444 308.563,152.779 308.228 C 152.991 308.016,165.977 308.568,173.012 309.089 L 175.693 309.287 175.693 306.654 L 175.693 304.021 159.874 304.021 L 144.056 304.021 144.324 306.345 M189.346 312.243 C 189.716 322.805,189.716 345.650,189.346 356.211 L 189.058 364.433 193.585 364.433 L 198.112 364.433 197.889 362.645 C 197.767 361.662,197.562 355.188,197.435 348.257 L 197.204 335.657 198.796 335.657 C 200.202 335.657,200.556 335.834,201.840 337.176 C 205.729 341.244,216.024 354.436,220.885 361.582 L 222.824 364.433 228.265 364.433 L 233.706 364.433 232.667 363.181 C 231.090 361.284,217.161 343.921,213.309 339.053 L 209.916 334.763 212.716 334.021 C 224.914 330.791,231.035 320.132,226.002 310.885 C 222.807 305.015,218.664 303.860,201.142 303.956 L 189.058 304.021 189.346 312.243 M243.710 305.451 C 244.047 307.319,244.046 361.137,243.710 363.003 L 243.452 364.433 247.943 364.433 L 252.435 364.433 252.219 355.675 C 252.100 350.858,251.908 344.693,251.793 341.976 L 251.584 337.034 255.283 337.275 C 267.171 338.051,277.315 333.950,280.695 327.002 C 283.620 320.990,282.871 312.823,279.002 308.540 C 275.401 304.554,271.768 303.833,255.831 303.939 L 243.452 304.021 243.710 305.451 M367.723 312.064 C 368.088 322.403,368.088 346.051,367.723 356.390 L 367.438 364.433 383.633 364.433 L 399.827 364.433 399.850 361.658 C 399.870 359.294,399.790 358.909,399.311 359.054 C 398.345 359.347,389.748 359.918,382.785 360.150 L 376.116 360.373 375.860 357.644 C 375.576 354.613,375.934 308.182,376.261 305.615 L 376.468 303.991 371.953 304.006 L 367.438 304.021 367.723 312.064 M330.557 307.512 C 343.364 311.981,349.584 328.490,344.747 345.180 C 340.523 359.758,325.062 366.411,310.992 359.707 C 293.993 351.607,293.511 317.861,310.269 309.055 C 315.854 306.120,324.649 305.451,330.557 307.512 M210.471 307.789 C 221.818 310.406,222.804 325.275,211.948 330.062 C 208.638 331.521,199.206 332.491,197.654 331.532 C 197.267 331.293,197.214 321.634,197.554 313.423 L 197.787 307.812 198.893 307.672 C 201.248 307.374,209.012 307.452,210.471 307.789 M267.761 308.427 C 276.674 311.919,276.197 327.128,267.030 331.713 C 263.445 333.505,258.102 334.159,253.351 333.387 L 251.653 333.111 251.653 320.227 L 251.653 307.343 258.713 307.495 C 264.894 307.629,266.020 307.745,267.761 308.427 " stroke="none" fill="#04447c" fill-rule="evenodd"></path><path id="path1" d="" stroke="none" fill="#044484" fill-rule="evenodd"></path><path id="path2" d="" stroke="none" fill="#08447c" fill-rule="evenodd"></path><path id="path3" d="" stroke="none" fill="#08447c" fill-rule="evenodd"></path><path id="path4" d="" stroke="none" fill="#08447c" fill-rule="evenodd"></path></g></svg>