<svg id="svg" version="1.1" xmlns="http://www.w3.org/2000/svg" xmlns:xlink="http://www.w3.org/1999/xlink" width="400" height="400" viewBox="0, 0, 400,400"><g id="svgg"><path id="path0" d="M177.600 0.853 C 177.600 1.102,177.934 1.597,178.343 1.953 C 178.751 2.309,179.213 3.005,179.370 3.500 C 179.526 3.995,179.822 4.400,180.027 4.400 C 180.232 4.400,180.400 4.670,180.400 5.000 C 180.400 5.330,180.577 5.600,180.792 5.600 C 181.008 5.600,181.298 6.050,181.436 6.600 C 181.574 7.150,181.847 7.600,182.043 7.600 C 182.240 7.600,182.400 7.870,182.400 8.200 C 182.400 8.530,182.558 8.800,182.750 8.800 C 182.942 8.800,183.217 9.384,183.359 10.097 C 183.682 11.709,184.501 13.600,184.878 13.600 C 185.033 13.600,185.282 14.680,185.432 16.000 C 185.581 17.320,185.860 18.400,186.052 18.400 C 186.243 18.400,186.400 19.105,186.400 19.967 C 186.400 20.828,186.609 21.603,186.864 21.688 C 187.551 21.917,187.583 38.872,186.896 39.101 C 186.614 39.195,186.400 39.942,186.400 40.833 C 186.400 41.695,186.243 42.400,186.052 42.400 C 185.860 42.400,185.581 43.480,185.432 44.800 C 185.282 46.120,184.989 47.200,184.780 47.200 C 184.571 47.200,184.400 47.650,184.400 48.200 C 184.400 48.750,184.234 49.200,184.032 49.200 C 183.829 49.200,183.545 49.740,183.400 50.400 C 183.255 51.060,182.971 51.600,182.768 51.600 C 182.566 51.600,182.400 51.960,182.400 52.400 C 182.400 52.840,182.240 53.200,182.043 53.200 C 181.847 53.200,181.574 53.650,181.436 54.200 C 181.298 54.750,181.008 55.200,180.792 55.200 C 180.577 55.200,180.400 55.470,180.400 55.800 C 180.400 56.130,180.232 56.400,180.027 56.400 C 179.822 56.400,179.537 56.768,179.394 57.218 C 179.251 57.668,178.349 58.844,177.390 59.832 C 176.430 60.819,175.536 61.971,175.402 62.393 C 175.269 62.814,174.817 63.267,174.400 63.400 C 173.983 63.533,173.533 63.983,173.400 64.400 C 173.267 64.817,172.817 65.267,172.400 65.400 C 171.983 65.533,171.533 65.983,171.400 66.400 C 171.267 66.817,170.817 67.267,170.400 67.400 C 169.983 67.533,169.533 67.983,169.400 68.400 C 169.267 68.817,168.817 69.267,168.400 69.400 C 167.983 69.533,167.533 69.983,167.400 70.400 C 167.267 70.817,166.817 71.267,166.400 71.400 C 165.983 71.533,165.533 71.983,165.400 72.400 C 165.267 72.817,164.817 73.267,164.400 73.400 C 163.983 73.533,163.530 73.992,163.394 74.420 C 163.257 74.849,162.892 75.200,162.582 75.200 C 162.044 75.200,144.400 92.455,144.400 92.981 C 144.400 93.261,143.681 94.178,142.881 94.919 C 141.624 96.083,140.400 97.500,140.400 97.791 C 140.400 97.928,139.775 98.683,139.011 99.470 C 138.247 100.256,137.515 101.237,137.384 101.650 C 137.253 102.062,136.978 102.400,136.773 102.400 C 136.568 102.400,136.400 102.593,136.400 102.829 C 136.400 103.064,136.175 103.508,135.900 103.815 C 134.713 105.138,134.400 105.591,134.400 105.983 C 134.400 106.212,134.232 106.400,134.027 106.400 C 133.822 106.400,133.526 106.805,133.370 107.300 C 133.213 107.795,132.777 108.470,132.400 108.800 C 132.023 109.130,131.573 109.850,131.400 110.400 C 131.227 110.950,130.752 111.691,130.344 112.046 C 129.935 112.402,129.489 113.257,129.351 113.946 C 129.213 114.636,128.942 115.200,128.750 115.200 C 128.558 115.200,128.400 115.470,128.400 115.800 C 128.400 116.130,128.220 116.400,128.000 116.400 C 127.780 116.400,127.600 116.657,127.600 116.971 C 127.600 117.286,127.375 117.788,127.100 118.087 C 126.239 119.024,125.665 120.249,125.383 121.751 C 125.233 122.548,124.951 123.200,124.755 123.200 C 124.560 123.200,124.400 123.470,124.400 123.800 C 124.400 124.130,124.236 124.400,124.035 124.400 C 123.834 124.400,123.549 125.120,123.400 126.000 C 123.251 126.880,122.966 127.600,122.765 127.600 C 122.564 127.600,122.400 128.050,122.400 128.600 C 122.400 129.150,122.231 129.600,122.025 129.600 C 121.818 129.600,121.528 130.410,121.379 131.400 C 121.231 132.390,120.950 133.200,120.755 133.200 C 120.560 133.200,120.400 133.740,120.400 134.400 C 120.400 135.060,120.235 135.600,120.034 135.600 C 119.833 135.600,119.542 136.950,119.387 138.600 C 119.233 140.250,118.947 141.600,118.753 141.600 C 118.559 141.600,118.400 142.680,118.400 144.000 C 118.400 145.333,118.222 146.400,118.000 146.400 C 117.746 146.400,117.600 149.400,117.600 154.600 C 117.600 159.800,117.746 162.800,118.000 162.800 C 118.231 162.800,118.400 164.067,118.400 165.800 C 118.400 167.450,118.554 168.800,118.742 168.800 C 118.931 168.800,119.208 170.285,119.359 172.100 C 119.509 173.915,119.805 175.460,120.016 175.533 C 120.227 175.607,120.400 176.372,120.400 177.233 C 120.400 178.095,120.563 178.800,120.762 178.800 C 120.962 178.800,121.249 179.700,121.400 180.800 C 121.551 181.900,121.838 182.800,122.038 182.800 C 122.237 182.800,122.400 183.250,122.400 183.800 C 122.400 184.350,122.560 184.800,122.755 184.800 C 122.950 184.800,123.231 185.610,123.379 186.600 C 123.528 187.590,123.818 188.400,124.025 188.400 C 124.231 188.400,124.400 188.749,124.400 189.176 C 124.400 189.603,124.566 190.055,124.769 190.181 C 124.972 190.306,125.257 190.947,125.401 191.605 C 125.545 192.262,125.829 192.800,126.032 192.800 C 126.234 192.800,126.400 193.160,126.400 193.600 C 126.400 194.040,126.560 194.400,126.757 194.400 C 126.953 194.400,127.235 194.884,127.383 195.476 C 127.532 196.068,127.989 196.844,128.400 197.200 C 128.811 197.556,129.269 198.336,129.419 198.933 C 129.569 199.530,130.005 200.239,130.388 200.509 C 130.772 200.779,131.213 201.405,131.370 201.900 C 131.526 202.395,131.822 202.800,132.027 202.800 C 132.232 202.800,132.400 202.992,132.400 203.227 C 132.400 203.719,130.675 203.291,130.467 202.747 C 130.393 202.556,129.988 202.400,129.567 202.400 C 129.145 202.400,128.800 202.240,128.800 202.043 C 128.800 201.847,128.316 201.565,127.724 201.417 C 127.132 201.268,126.367 200.824,126.024 200.430 C 125.681 200.037,124.995 199.587,124.500 199.430 C 124.005 199.274,123.600 198.978,123.600 198.773 C 123.600 198.568,123.412 198.400,123.183 198.400 C 122.706 198.400,121.914 197.794,120.700 196.500 C 120.236 196.005,119.695 195.600,119.499 195.600 C 119.034 195.600,112.400 188.966,112.400 188.501 C 112.400 188.305,111.950 187.753,111.400 187.275 C 110.850 186.797,110.400 186.134,110.400 185.803 C 110.400 185.471,110.220 185.200,110.000 185.200 C 109.780 185.200,109.600 184.952,109.600 184.649 C 109.600 184.346,109.330 183.874,109.000 183.600 C 108.670 183.326,108.400 182.764,108.400 182.351 C 108.400 181.938,108.220 181.600,108.000 181.600 C 107.780 181.600,107.600 181.330,107.600 181.000 C 107.600 180.670,107.420 180.400,107.200 180.400 C 106.980 180.400,106.800 180.202,106.800 179.960 C 106.800 179.425,105.546 176.678,105.175 176.400 C 105.028 176.290,104.781 175.795,104.627 175.300 C 104.351 174.417,103.200 174.014,103.200 174.800 C 103.200 175.020,102.834 175.200,102.387 175.200 C 101.941 175.200,101.471 175.470,101.345 175.800 C 101.218 176.130,100.793 176.400,100.400 176.400 C 100.007 176.400,99.582 176.670,99.455 177.000 C 99.329 177.330,98.872 177.600,98.440 177.600 C 98.005 177.600,97.540 177.958,97.400 178.400 C 97.260 178.842,96.795 179.200,96.360 179.200 C 95.928 179.200,95.471 179.470,95.345 179.800 C 95.218 180.130,94.793 180.400,94.400 180.400 C 94.007 180.400,93.582 180.670,93.455 181.000 C 93.329 181.330,92.960 181.600,92.635 181.600 C 92.311 181.600,91.810 181.934,91.523 182.343 C 91.235 182.751,90.595 183.213,90.100 183.370 C 89.605 183.526,89.200 183.822,89.200 184.027 C 89.200 184.232,88.973 184.400,88.696 184.400 C 88.419 184.400,87.707 184.850,87.113 185.400 C 86.520 185.950,85.847 186.400,85.617 186.400 C 85.388 186.400,85.200 186.568,85.200 186.773 C 85.200 186.978,84.795 187.274,84.300 187.430 C 83.805 187.587,83.130 188.023,82.800 188.400 C 82.470 188.777,81.795 189.213,81.300 189.370 C 80.805 189.526,80.400 189.822,80.400 190.027 C 80.400 190.232,80.130 190.400,79.800 190.400 C 79.470 190.400,79.200 190.568,79.200 190.773 C 79.200 190.978,78.795 191.274,78.300 191.430 C 77.805 191.587,77.130 192.023,76.800 192.400 C 76.470 192.777,75.795 193.213,75.300 193.370 C 74.805 193.526,74.400 193.822,74.400 194.027 C 74.400 194.232,74.130 194.400,73.800 194.400 C 73.470 194.400,73.200 194.539,73.200 194.709 C 73.200 194.879,72.570 195.357,71.800 195.772 C 71.030 196.187,70.400 196.666,70.400 196.836 C 70.400 197.007,69.995 197.274,69.500 197.430 C 69.005 197.587,68.330 198.023,68.000 198.400 C 67.670 198.777,66.995 199.213,66.500 199.370 C 66.005 199.526,65.600 199.822,65.600 200.027 C 65.600 200.232,65.330 200.400,65.000 200.400 C 64.670 200.400,64.400 200.568,64.400 200.773 C 64.400 200.978,63.995 201.274,63.500 201.430 C 63.005 201.587,62.330 202.023,62.000 202.400 C 61.670 202.777,60.995 203.213,60.500 203.370 C 60.005 203.526,59.600 203.822,59.600 204.027 C 59.600 204.232,59.330 204.400,59.000 204.400 C 58.670 204.400,58.400 204.539,58.400 204.709 C 58.400 204.879,57.770 205.357,57.000 205.772 C 56.230 206.187,55.600 206.658,55.600 206.820 C 55.600 206.981,55.162 207.223,54.627 207.358 C 54.091 207.492,53.539 207.961,53.400 208.401 C 53.260 208.842,52.794 209.200,52.360 209.200 C 51.928 209.200,51.471 209.470,51.345 209.800 C 51.218 210.130,50.793 210.400,50.400 210.400 C 50.007 210.400,49.582 210.670,49.455 211.000 C 49.329 211.330,48.872 211.600,48.440 211.600 C 48.005 211.600,47.540 211.958,47.400 212.400 C 47.260 212.840,46.978 213.200,46.773 213.200 C 45.896 213.200,46.317 271.917,47.200 272.800 C 47.640 273.240,48.181 273.600,48.402 273.600 C 48.623 273.600,49.685 274.500,50.762 275.600 C 51.839 276.700,52.919 277.600,53.160 277.600 C 53.402 277.600,53.600 277.768,53.600 277.973 C 53.600 278.178,53.951 278.457,54.380 278.594 C 54.808 278.730,55.267 279.183,55.400 279.600 C 55.533 280.017,56.032 280.483,56.510 280.635 C 56.988 280.787,58.142 281.696,59.075 282.655 C 60.007 283.615,60.935 284.400,61.137 284.400 C 61.338 284.400,62.438 285.292,63.582 286.383 C 64.725 287.473,65.998 288.472,66.410 288.603 C 66.822 288.734,67.267 289.183,67.400 289.600 C 67.533 290.017,67.992 290.470,68.420 290.606 C 68.849 290.743,69.200 291.022,69.200 291.227 C 69.200 291.432,69.385 291.600,69.612 291.600 C 69.839 291.600,70.948 292.500,72.077 293.600 C 73.207 294.700,74.274 295.600,74.449 295.600 C 74.624 295.600,75.502 296.320,76.400 297.200 C 77.298 298.080,78.283 298.800,78.589 298.800 C 78.895 298.800,79.260 299.160,79.400 299.600 C 79.540 300.040,79.823 300.400,80.030 300.400 C 80.236 300.400,80.797 300.850,81.275 301.400 C 81.753 301.950,82.307 302.400,82.505 302.400 C 82.703 302.400,83.771 303.300,84.876 304.400 C 85.982 305.500,87.040 306.400,87.228 306.400 C 87.416 306.400,88.282 307.120,89.153 308.000 C 90.024 308.880,90.931 309.600,91.169 309.600 C 91.406 309.600,91.600 309.768,91.600 309.973 C 91.600 310.178,91.951 310.457,92.380 310.594 C 92.808 310.730,93.267 311.183,93.400 311.600 C 93.533 312.017,94.022 312.480,94.488 312.628 C 94.954 312.776,96.213 313.775,97.286 314.848 C 98.360 315.922,99.403 316.800,99.604 316.800 C 99.805 316.800,100.792 317.600,101.798 318.577 C 102.804 319.555,103.971 320.464,104.393 320.598 C 104.814 320.731,105.267 321.183,105.400 321.600 C 105.533 322.017,105.992 322.470,106.420 322.606 C 106.849 322.743,107.200 323.022,107.200 323.227 C 107.200 323.432,107.385 323.600,107.612 323.600 C 107.839 323.600,108.948 324.500,110.077 325.600 C 111.207 326.700,112.274 327.600,112.449 327.600 C 112.624 327.600,113.502 328.320,114.400 329.200 C 115.298 330.080,116.283 330.800,116.589 330.800 C 116.895 330.800,117.260 331.160,117.400 331.600 C 117.540 332.040,117.820 332.400,118.024 332.400 C 118.227 332.400,118.875 332.940,119.463 333.600 C 120.051 334.260,120.685 334.800,120.872 334.800 C 121.059 334.800,122.045 335.610,123.064 336.600 C 124.083 337.590,125.063 338.400,125.243 338.400 C 125.422 338.400,126.282 339.120,127.153 340.000 C 128.024 340.880,128.854 341.600,128.997 341.600 C 129.299 341.600,130.698 342.803,131.881 344.081 C 132.618 344.877,133.539 345.600,133.814 345.600 C 133.951 345.600,134.776 346.320,135.647 347.200 C 136.518 348.080,137.411 348.800,137.630 348.800 C 137.850 348.800,138.793 349.585,139.725 350.545 C 140.658 351.504,141.812 352.413,142.290 352.565 C 142.768 352.717,143.270 353.192,143.406 353.620 C 143.543 354.049,143.823 354.400,144.030 354.400 C 144.236 354.400,144.797 354.850,145.275 355.400 C 145.753 355.950,146.306 356.400,146.504 356.400 C 146.701 356.400,147.597 357.120,148.495 358.000 C 149.393 358.880,150.286 359.600,150.480 359.600 C 150.673 359.600,151.517 360.320,152.354 361.200 C 153.191 362.080,154.162 362.800,154.511 362.800 C 154.860 362.800,155.260 363.160,155.400 363.600 C 155.540 364.040,155.820 364.400,156.024 364.400 C 156.227 364.400,156.875 364.940,157.463 365.600 C 158.051 366.260,158.685 366.800,158.872 366.800 C 159.059 366.800,160.045 367.610,161.064 368.600 C 162.083 369.590,163.048 370.400,163.210 370.400 C 163.371 370.400,164.438 371.292,165.582 372.383 C 166.725 373.473,167.998 374.472,168.410 374.603 C 168.822 374.734,169.267 375.183,169.400 375.600 C 169.533 376.017,169.992 376.470,170.420 376.606 C 170.849 376.743,171.200 377.022,171.200 377.227 C 171.200 377.432,171.394 377.600,171.631 377.600 C 171.869 377.600,172.776 378.320,173.647 379.200 C 174.518 380.080,175.402 380.800,175.610 380.800 C 175.819 380.800,176.894 381.700,178.000 382.800 C 179.106 383.900,180.266 384.800,180.578 384.800 C 180.891 384.800,181.260 385.160,181.400 385.600 C 181.540 386.040,181.823 386.400,182.030 386.400 C 182.236 386.400,182.797 386.850,183.275 387.400 C 183.753 387.950,184.320 388.400,184.534 388.400 C 184.748 388.400,185.609 389.120,186.446 390.000 C 187.283 390.880,188.156 391.600,188.386 391.600 C 188.616 391.600,189.685 392.500,190.762 393.600 C 191.839 394.700,192.919 395.600,193.160 395.600 C 193.402 395.600,193.600 395.768,193.600 395.973 C 193.600 396.178,193.951 396.457,194.380 396.594 C 194.808 396.730,195.267 397.183,195.400 397.600 C 195.533 398.017,196.028 398.482,196.502 398.632 C 196.975 398.783,197.609 399.152,197.910 399.453 C 198.705 400.248,200.536 400.123,201.600 399.200 C 202.107 398.760,202.649 398.400,202.803 398.400 C 202.958 398.400,203.917 397.590,204.936 396.600 C 205.955 395.610,206.941 394.800,207.128 394.800 C 207.315 394.800,207.936 394.305,208.509 393.700 C 209.788 392.348,210.684 391.600,211.023 391.600 C 211.164 391.600,212.161 390.700,213.238 389.600 C 214.315 388.500,215.384 387.600,215.614 387.600 C 215.844 387.600,216.717 386.880,217.554 386.000 C 218.391 385.120,219.252 384.400,219.466 384.400 C 219.680 384.400,220.247 383.950,220.725 383.400 C 221.203 382.850,221.764 382.400,221.970 382.400 C 222.177 382.400,222.460 382.040,222.600 381.600 C 222.740 381.160,223.105 380.800,223.411 380.800 C 223.717 380.800,224.702 380.080,225.600 379.200 C 226.498 378.320,227.376 377.600,227.553 377.600 C 227.729 377.600,228.607 376.880,229.505 376.000 C 230.403 375.120,231.299 374.400,231.496 374.400 C 231.694 374.400,232.247 373.950,232.725 373.400 C 233.203 372.850,233.764 372.400,233.970 372.400 C 234.177 372.400,234.457 372.049,234.594 371.620 C 234.730 371.192,235.232 370.717,235.710 370.565 C 236.188 370.413,237.342 369.504,238.275 368.545 C 239.207 367.585,240.150 366.800,240.370 366.800 C 240.589 366.800,241.482 366.080,242.353 365.200 C 243.224 364.320,244.131 363.600,244.369 363.600 C 244.606 363.600,244.800 363.432,244.800 363.227 C 244.800 363.022,245.151 362.743,245.580 362.606 C 246.008 362.470,246.467 362.017,246.600 361.600 C 246.733 361.183,247.186 360.731,247.607 360.598 C 248.029 360.464,249.196 359.555,250.202 358.577 C 251.208 357.600,252.195 356.800,252.396 356.800 C 252.597 356.800,253.640 355.922,254.714 354.848 C 255.787 353.775,257.046 352.776,257.512 352.628 C 257.978 352.480,258.467 352.017,258.600 351.600 C 258.733 351.183,259.192 350.730,259.620 350.594 C 260.049 350.457,260.400 350.178,260.400 349.973 C 260.400 349.768,260.594 349.600,260.831 349.600 C 261.069 349.600,261.976 348.880,262.847 348.000 C 263.718 347.120,264.578 346.400,264.757 346.400 C 264.937 346.400,265.917 345.590,266.936 344.600 C 267.955 343.610,268.941 342.800,269.128 342.800 C 269.315 342.800,269.949 342.260,270.537 341.600 C 271.125 340.940,271.773 340.400,271.976 340.400 C 272.180 340.400,272.460 340.040,272.600 339.600 C 272.740 339.160,273.140 338.800,273.489 338.800 C 273.838 338.800,274.809 338.080,275.646 337.200 C 276.483 336.320,277.362 335.600,277.600 335.600 C 277.838 335.600,278.717 334.880,279.554 334.000 C 280.391 333.120,281.252 332.400,281.466 332.400 C 281.680 332.400,282.247 331.950,282.725 331.400 C 283.203 330.850,283.764 330.400,283.970 330.400 C 284.177 330.400,284.460 330.040,284.600 329.600 C 284.740 329.160,285.105 328.800,285.411 328.800 C 285.717 328.800,286.702 328.080,287.600 327.200 C 288.498 326.320,289.376 325.600,289.551 325.600 C 289.726 325.600,290.793 324.700,291.923 323.600 C 293.052 322.500,294.161 321.600,294.388 321.600 C 294.615 321.600,294.800 321.432,294.800 321.227 C 294.800 321.022,295.151 320.743,295.580 320.606 C 296.008 320.470,296.467 320.017,296.600 319.600 C 296.733 319.183,297.232 318.717,297.710 318.565 C 298.188 318.413,299.342 317.504,300.275 316.545 C 301.207 315.585,302.150 314.800,302.370 314.800 C 302.589 314.800,303.482 314.080,304.353 313.200 C 305.224 312.320,306.131 311.600,306.369 311.600 C 306.606 311.600,306.800 311.432,306.800 311.227 C 306.800 311.022,307.151 310.743,307.580 310.606 C 308.008 310.470,308.467 310.017,308.600 309.600 C 308.733 309.183,309.178 308.734,309.590 308.603 C 310.002 308.472,311.275 307.473,312.418 306.383 C 313.562 305.292,314.662 304.400,314.863 304.400 C 315.065 304.400,315.993 303.615,316.925 302.655 C 317.858 301.696,319.012 300.787,319.490 300.635 C 319.968 300.483,320.467 300.017,320.600 299.600 C 320.733 299.183,321.192 298.730,321.620 298.594 C 322.049 298.457,322.400 298.178,322.400 297.973 C 322.400 297.768,322.594 297.600,322.831 297.600 C 323.069 297.600,323.976 296.880,324.847 296.000 C 325.718 295.120,326.578 294.400,326.757 294.400 C 326.937 294.400,327.917 293.590,328.936 292.600 C 329.955 291.610,330.941 290.800,331.128 290.800 C 331.315 290.800,331.949 290.260,332.537 289.600 C 333.125 288.940,333.773 288.400,333.976 288.400 C 334.180 288.400,334.460 288.040,334.600 287.600 C 334.740 287.160,335.140 286.800,335.489 286.800 C 335.838 286.800,336.809 286.080,337.646 285.200 C 338.483 284.320,339.362 283.600,339.600 283.600 C 339.838 283.600,340.717 282.880,341.554 282.000 C 342.391 281.120,343.252 280.400,343.466 280.400 C 343.680 280.400,344.247 279.950,344.725 279.400 C 345.203 278.850,345.764 278.400,345.970 278.400 C 346.177 278.400,346.460 278.040,346.600 277.600 C 346.740 277.160,347.105 276.800,347.411 276.800 C 347.717 276.800,348.702 276.080,349.600 275.200 C 350.498 274.320,351.360 273.594,351.516 273.587 C 353.436 273.497,353.600 272.573,353.600 261.836 L 353.600 251.600 352.600 251.600 C 352.050 251.600,351.600 251.780,351.600 252.000 C 351.600 252.220,351.406 252.400,351.169 252.400 C 350.931 252.400,350.024 253.120,349.153 254.000 C 348.282 254.880,347.389 255.600,347.170 255.600 C 346.950 255.600,346.007 256.385,345.075 257.345 C 344.142 258.304,342.988 259.213,342.510 259.365 C 342.032 259.517,341.533 259.983,341.400 260.400 C 341.267 260.817,340.808 261.270,340.380 261.406 C 339.951 261.543,339.600 261.822,339.600 262.027 C 339.600 262.232,339.406 262.400,339.169 262.400 C 338.931 262.400,338.024 263.120,337.153 264.000 C 336.282 264.880,335.422 265.600,335.243 265.600 C 335.063 265.600,334.083 266.410,333.064 267.400 C 332.045 268.390,331.059 269.200,330.872 269.200 C 330.685 269.200,330.064 269.695,329.491 270.300 C 328.212 271.652,327.316 272.400,326.977 272.400 C 326.836 272.400,325.839 273.300,324.762 274.400 C 323.685 275.500,322.616 276.400,322.386 276.400 C 322.156 276.400,321.283 277.120,320.446 278.000 C 319.609 278.880,318.748 279.600,318.534 279.600 C 318.320 279.600,317.753 280.050,317.275 280.600 C 316.797 281.150,316.236 281.600,316.030 281.600 C 315.823 281.600,315.540 281.960,315.400 282.400 C 315.260 282.840,314.860 283.200,314.511 283.200 C 314.162 283.200,313.191 283.920,312.354 284.800 C 311.517 285.680,310.673 286.400,310.480 286.400 C 310.286 286.400,309.393 287.120,308.495 288.000 C 307.597 288.880,306.701 289.600,306.504 289.600 C 306.306 289.600,305.753 290.050,305.275 290.600 C 304.797 291.150,304.236 291.600,304.030 291.600 C 303.823 291.600,303.540 291.960,303.400 292.400 C 303.260 292.840,302.895 293.200,302.589 293.200 C 302.283 293.200,301.298 293.920,300.400 294.800 C 299.502 295.680,298.624 296.400,298.449 296.400 C 298.274 296.400,297.207 297.300,296.077 298.400 C 294.948 299.500,293.839 300.400,293.612 300.400 C 293.385 300.400,293.200 300.568,293.200 300.773 C 293.200 300.978,292.849 301.257,292.420 301.394 C 291.992 301.530,291.533 301.983,291.400 302.400 C 291.267 302.817,290.768 303.283,290.290 303.435 C 289.812 303.587,288.658 304.496,287.725 305.455 C 286.793 306.415,285.850 307.200,285.630 307.200 C 285.411 307.200,284.518 307.920,283.647 308.800 C 282.776 309.680,281.869 310.400,281.631 310.400 C 281.394 310.400,281.200 310.568,281.200 310.773 C 281.200 310.978,280.849 311.257,280.420 311.394 C 279.992 311.530,279.533 311.983,279.400 312.400 C 279.267 312.817,278.814 313.269,278.393 313.402 C 277.971 313.536,276.804 314.445,275.798 315.423 C 274.792 316.400,273.803 317.200,273.600 317.200 C 273.397 317.200,272.518 317.920,271.647 318.800 C 270.776 319.680,269.946 320.400,269.803 320.400 C 269.501 320.400,268.102 321.603,266.919 322.881 C 266.182 323.677,265.261 324.400,264.986 324.400 C 264.849 324.400,264.024 325.120,263.153 326.000 C 262.282 326.880,261.389 327.600,261.170 327.600 C 260.950 327.600,260.007 328.385,259.075 329.345 C 258.142 330.304,256.988 331.213,256.510 331.365 C 256.032 331.517,255.533 331.983,255.400 332.400 C 255.267 332.817,254.808 333.270,254.380 333.406 C 253.951 333.543,253.600 333.822,253.600 334.027 C 253.600 334.232,253.406 334.400,253.169 334.400 C 252.931 334.400,252.024 335.120,251.153 336.000 C 250.282 336.880,249.422 337.600,249.243 337.600 C 249.063 337.600,248.083 338.410,247.064 339.400 C 246.045 340.390,245.059 341.200,244.872 341.200 C 244.685 341.200,244.064 341.695,243.491 342.300 C 242.212 343.652,241.316 344.400,240.977 344.400 C 240.836 344.400,239.839 345.300,238.762 346.400 C 237.685 347.500,236.616 348.400,236.386 348.400 C 236.156 348.400,235.283 349.120,234.446 350.000 C 233.609 350.880,232.748 351.600,232.534 351.600 C 232.320 351.600,231.753 352.050,231.275 352.600 C 230.797 353.150,230.236 353.600,230.030 353.600 C 229.823 353.600,229.540 353.960,229.400 354.400 C 229.260 354.840,228.895 355.200,228.589 355.200 C 228.283 355.200,227.298 355.920,226.400 356.800 C 225.502 357.680,224.624 358.400,224.447 358.400 C 224.271 358.400,223.393 359.120,222.495 360.000 C 221.597 360.880,220.701 361.600,220.504 361.600 C 220.306 361.600,219.753 362.050,219.275 362.600 C 218.797 363.150,218.236 363.600,218.030 363.600 C 217.823 363.600,217.540 363.960,217.400 364.400 C 217.260 364.840,216.895 365.200,216.589 365.200 C 216.283 365.200,215.298 365.920,214.400 366.800 C 213.502 367.680,212.624 368.400,212.449 368.400 C 212.274 368.400,211.207 369.300,210.077 370.400 C 208.948 371.500,207.839 372.400,207.612 372.400 C 207.385 372.400,207.200 372.568,207.200 372.773 C 207.200 372.978,206.849 373.257,206.420 373.394 C 205.992 373.530,205.533 373.983,205.400 374.400 C 205.267 374.817,204.763 375.284,204.280 375.437 C 203.796 375.589,203.109 376.049,202.753 376.457 C 201.645 377.729,201.600 377.421,201.600 368.605 C 201.600 359.746,201.840 358.400,203.417 358.400 C 203.658 358.400,204.247 357.950,204.725 357.400 C 205.203 356.850,205.764 356.400,205.970 356.400 C 206.177 356.400,206.460 356.040,206.600 355.600 C 206.740 355.160,207.105 354.800,207.411 354.800 C 207.717 354.800,208.702 354.080,209.600 353.200 C 210.498 352.320,211.376 351.600,211.553 351.600 C 211.729 351.600,212.607 350.880,213.505 350.000 C 214.403 349.120,215.299 348.400,215.496 348.400 C 215.694 348.400,216.247 347.950,216.725 347.400 C 217.203 346.850,217.764 346.400,217.970 346.400 C 218.177 346.400,218.457 346.049,218.594 345.620 C 218.730 345.192,219.232 344.717,219.710 344.565 C 220.188 344.413,221.342 343.504,222.275 342.545 C 223.207 341.585,224.150 340.800,224.370 340.800 C 224.589 340.800,225.482 340.080,226.353 339.200 C 227.224 338.320,228.131 337.600,228.369 337.600 C 228.606 337.600,228.800 337.432,228.800 337.227 C 228.800 337.022,229.151 336.743,229.580 336.606 C 230.008 336.470,230.467 336.017,230.600 335.600 C 230.733 335.183,231.186 334.731,231.607 334.598 C 232.029 334.464,233.196 333.555,234.202 332.577 C 235.208 331.600,236.197 330.800,236.400 330.800 C 236.603 330.800,237.482 330.080,238.353 329.200 C 239.224 328.320,240.131 327.600,240.369 327.600 C 240.606 327.600,240.800 327.432,240.800 327.227 C 240.800 327.022,241.151 326.743,241.580 326.606 C 242.008 326.470,242.467 326.017,242.600 325.600 C 242.733 325.183,243.178 324.734,243.590 324.603 C 244.002 324.472,245.275 323.473,246.418 322.383 C 247.562 321.292,248.662 320.400,248.863 320.400 C 249.065 320.400,249.993 319.615,250.925 318.655 C 251.858 317.696,253.012 316.787,253.490 316.635 C 253.968 316.483,254.467 316.017,254.600 315.600 C 254.733 315.183,255.192 314.730,255.620 314.594 C 256.049 314.457,256.400 314.178,256.400 313.973 C 256.400 313.768,256.594 313.600,256.831 313.600 C 257.069 313.600,257.976 312.880,258.847 312.000 C 259.718 311.120,260.578 310.400,260.757 310.400 C 260.937 310.400,261.897 309.609,262.892 308.643 C 263.886 307.676,265.073 306.767,265.529 306.622 C 265.986 306.478,266.467 306.017,266.600 305.600 C 266.733 305.183,267.192 304.730,267.620 304.594 C 268.049 304.457,268.400 304.178,268.400 303.973 C 268.400 303.768,268.594 303.600,268.831 303.600 C 269.069 303.600,269.976 302.880,270.847 302.000 C 271.718 301.120,272.584 300.400,272.772 300.400 C 272.960 300.400,274.018 299.500,275.124 298.400 C 276.229 297.300,277.297 296.400,277.495 296.400 C 277.693 296.400,278.247 295.950,278.725 295.400 C 279.203 294.850,279.764 294.400,279.970 294.400 C 280.177 294.400,280.460 294.040,280.600 293.600 C 280.740 293.160,281.140 292.800,281.489 292.800 C 281.838 292.800,282.809 292.080,283.646 291.200 C 284.483 290.320,285.327 289.600,285.520 289.600 C 285.714 289.600,286.607 288.880,287.505 288.000 C 288.403 287.120,289.299 286.400,289.496 286.400 C 289.694 286.400,290.247 285.950,290.725 285.400 C 291.203 284.850,291.764 284.400,291.970 284.400 C 292.177 284.400,292.460 284.040,292.600 283.600 C 292.740 283.160,293.105 282.800,293.411 282.800 C 293.717 282.800,294.702 282.080,295.600 281.200 C 296.498 280.320,297.376 279.600,297.553 279.600 C 297.729 279.600,298.607 278.880,299.505 278.000 C 300.403 277.120,301.299 276.400,301.496 276.400 C 301.694 276.400,302.247 275.950,302.725 275.400 C 303.203 274.850,303.764 274.400,303.970 274.400 C 304.177 274.400,304.457 274.049,304.594 273.620 C 304.730 273.192,305.232 272.717,305.710 272.565 C 306.188 272.413,307.342 271.504,308.275 270.545 C 309.207 269.585,310.150 268.800,310.370 268.800 C 310.589 268.800,311.482 268.080,312.353 267.200 C 313.224 266.320,314.131 265.600,314.369 265.600 C 314.606 265.600,314.800 265.432,314.800 265.227 C 314.800 265.022,315.151 264.743,315.580 264.606 C 316.008 264.470,316.467 264.017,316.600 263.600 C 316.733 263.183,317.186 262.731,317.607 262.598 C 318.029 262.464,319.196 261.555,320.202 260.577 C 321.208 259.600,322.197 258.800,322.400 258.800 C 322.603 258.800,323.482 258.080,324.353 257.200 C 325.224 256.320,326.131 255.600,326.369 255.600 C 326.606 255.600,326.800 255.432,326.800 255.227 C 326.800 255.022,327.151 254.743,327.580 254.606 C 328.008 254.470,328.467 254.017,328.600 253.600 C 328.733 253.183,329.178 252.734,329.590 252.603 C 330.002 252.472,331.275 251.473,332.418 250.383 C 333.562 249.292,334.662 248.400,334.863 248.400 C 335.065 248.400,335.993 247.615,336.925 246.655 C 337.858 245.696,339.012 244.787,339.490 244.635 C 339.968 244.483,340.467 244.017,340.600 243.600 C 340.733 243.183,341.192 242.730,341.620 242.594 C 342.049 242.457,342.400 242.178,342.400 241.973 C 342.400 241.768,342.594 241.600,342.831 241.600 C 343.069 241.600,343.976 240.880,344.847 240.000 C 345.718 239.120,346.578 238.400,346.757 238.400 C 346.937 238.400,347.897 237.609,348.892 236.643 C 349.886 235.676,351.073 234.767,351.529 234.622 C 351.986 234.478,352.470 234.008,352.606 233.580 C 352.743 233.151,353.022 232.800,353.227 232.800 C 353.447 232.800,353.600 229.089,353.600 223.771 C 353.600 214.227,353.562 214.023,351.681 213.426 C 351.197 213.272,350.800 212.978,350.800 212.773 C 350.800 212.568,350.530 212.400,350.200 212.400 C 349.870 212.400,349.600 212.232,349.600 212.027 C 349.600 211.822,349.195 211.526,348.700 211.370 C 348.205 211.213,347.530 210.777,347.200 210.400 C 346.870 210.023,346.195 209.587,345.700 209.430 C 345.205 209.274,344.800 208.978,344.800 208.773 C 344.800 208.568,344.530 208.400,344.200 208.400 C 343.870 208.400,343.600 208.232,343.600 208.027 C 343.600 207.822,343.195 207.526,342.700 207.370 C 342.205 207.213,341.530 206.777,341.200 206.400 C 340.870 206.023,340.195 205.587,339.700 205.430 C 339.205 205.274,338.800 204.978,338.800 204.773 C 338.800 204.568,338.530 204.400,338.200 204.400 C 337.870 204.400,337.600 204.232,337.600 204.027 C 337.600 203.822,337.195 203.526,336.700 203.370 C 336.205 203.213,335.530 202.777,335.200 202.400 C 334.870 202.023,334.195 201.587,333.700 201.430 C 333.205 201.274,332.800 200.978,332.800 200.773 C 332.800 200.568,332.530 200.400,332.200 200.400 C 331.870 200.400,331.600 200.223,331.600 200.008 C 331.600 199.792,331.150 199.502,330.600 199.364 C 330.050 199.226,329.600 198.981,329.600 198.820 C 329.600 198.658,328.970 198.187,328.200 197.772 C 327.430 197.357,326.800 196.879,326.800 196.709 C 326.800 196.539,326.530 196.400,326.200 196.400 C 325.870 196.400,325.600 196.223,325.600 196.008 C 325.600 195.792,325.150 195.502,324.600 195.364 C 324.050 195.226,323.600 194.981,323.600 194.820 C 323.600 194.658,322.925 194.183,322.100 193.763 C 321.275 193.343,320.330 192.711,320.000 192.357 C 319.670 192.004,318.995 191.587,318.500 191.430 C 318.005 191.274,317.600 190.978,317.600 190.773 C 317.600 190.568,317.330 190.400,317.000 190.400 C 316.670 190.400,316.400 190.232,316.400 190.027 C 316.400 189.822,315.995 189.526,315.500 189.370 C 315.005 189.213,314.330 188.777,314.000 188.400 C 313.670 188.023,312.995 187.587,312.500 187.430 C 312.005 187.274,311.600 186.978,311.600 186.773 C 311.600 186.568,311.330 186.400,311.000 186.400 C 310.670 186.400,310.400 186.232,310.400 186.027 C 310.400 185.822,309.995 185.526,309.500 185.370 C 309.005 185.213,308.330 184.777,308.000 184.400 C 307.670 184.023,306.995 183.587,306.500 183.430 C 306.005 183.274,305.600 182.978,305.600 182.773 C 305.600 182.568,305.330 182.400,305.000 182.400 C 304.670 182.400,304.400 182.232,304.400 182.027 C 304.400 181.822,303.995 181.526,303.500 181.370 C 303.005 181.213,302.330 180.777,302.000 180.400 C 301.670 180.023,300.995 179.587,300.500 179.430 C 300.005 179.274,299.600 178.978,299.600 178.773 C 299.600 178.568,299.330 178.400,299.000 178.400 C 298.670 178.400,298.400 178.232,298.400 178.027 C 298.400 177.822,297.995 177.526,297.500 177.370 C 297.005 177.213,296.330 176.777,296.000 176.400 C 295.670 176.023,294.995 175.587,294.500 175.430 C 294.005 175.274,293.600 174.978,293.600 174.773 C 293.600 174.568,293.330 174.400,293.000 174.400 C 292.670 174.400,292.400 174.223,292.400 174.008 C 292.400 173.792,291.950 173.502,291.400 173.364 C 290.850 173.226,290.400 172.981,290.400 172.820 C 290.400 172.658,289.770 172.187,289.000 171.772 C 288.230 171.357,287.600 170.879,287.600 170.709 C 287.600 170.539,287.330 170.400,287.000 170.400 C 286.670 170.400,286.400 170.232,286.400 170.027 C 286.400 169.822,286.009 169.530,285.531 169.378 C 285.053 169.226,284.288 168.752,283.831 168.324 C 283.374 167.895,282.510 167.446,281.912 167.325 C 281.313 167.204,280.716 166.766,280.585 166.352 C 280.454 165.939,279.993 165.600,279.560 165.600 C 279.128 165.600,278.671 165.330,278.545 165.000 C 278.418 164.670,277.993 164.400,277.600 164.400 C 277.207 164.400,276.782 164.130,276.655 163.800 C 276.529 163.470,276.072 163.200,275.640 163.200 C 275.205 163.200,274.740 162.842,274.600 162.400 C 274.460 161.958,273.995 161.600,273.560 161.600 C 273.128 161.600,272.671 161.330,272.545 161.000 C 272.418 160.670,271.993 160.400,271.600 160.400 C 271.207 160.400,270.782 160.130,270.655 159.800 C 269.686 157.275,269.400 159.525,269.400 169.667 C 269.400 177.684,269.283 180.172,268.900 180.300 C 268.625 180.392,268.400 181.071,268.400 181.810 C 268.400 182.548,268.237 183.254,268.037 183.377 C 267.838 183.500,267.551 184.501,267.400 185.600 C 267.249 186.700,266.962 187.600,266.762 187.600 C 266.563 187.600,266.400 188.050,266.400 188.600 C 266.400 189.150,266.231 189.600,266.025 189.600 C 265.818 189.600,265.528 190.410,265.379 191.400 C 265.231 192.390,264.950 193.200,264.755 193.200 C 264.560 193.200,264.400 193.470,264.400 193.800 C 264.400 194.130,264.228 194.400,264.018 194.400 C 263.808 194.400,263.518 195.030,263.374 195.800 C 263.229 196.570,262.951 197.200,262.755 197.200 C 262.560 197.200,262.400 197.470,262.400 197.800 C 262.400 198.130,262.223 198.400,262.008 198.400 C 261.792 198.400,261.502 198.850,261.364 199.400 C 261.226 199.950,260.953 200.400,260.757 200.400 C 260.560 200.400,260.400 200.670,260.400 201.000 C 260.400 201.330,260.220 201.600,260.000 201.600 C 259.780 201.600,259.600 201.966,259.600 202.413 C 259.600 202.859,259.330 203.329,259.000 203.455 C 258.670 203.582,258.400 203.945,258.400 204.262 C 258.400 204.579,257.950 205.255,257.400 205.765 C 256.850 206.275,256.400 206.819,256.400 206.974 C 256.400 207.130,256.175 207.508,255.900 207.815 C 254.828 209.010,254.400 209.575,254.400 209.796 C 254.400 209.922,253.050 211.393,251.400 213.065 C 249.750 214.736,248.400 216.254,248.400 216.438 C 248.400 216.893,246.116 219.200,245.665 219.200 C 245.466 219.200,243.850 220.640,242.073 222.400 C 240.296 224.160,238.686 225.600,238.494 225.600 C 238.301 225.600,237.753 226.050,237.275 226.600 C 236.797 227.150,236.236 227.600,236.030 227.600 C 235.823 227.600,235.540 227.960,235.400 228.400 C 235.260 228.840,234.823 229.200,234.429 229.200 C 234.035 229.200,233.374 229.650,232.961 230.200 C 232.548 230.750,231.991 231.200,231.723 231.200 C 231.455 231.200,230.808 231.628,230.284 232.152 C 229.761 232.676,228.942 233.228,228.466 233.379 C 227.990 233.530,227.600 233.822,227.600 234.027 C 227.600 234.232,227.330 234.400,227.000 234.400 C 226.670 234.400,226.400 234.568,226.400 234.773 C 226.400 234.978,225.995 235.274,225.500 235.430 C 225.005 235.587,224.330 236.023,224.000 236.400 C 223.670 236.777,222.950 237.227,222.400 237.400 C 221.850 237.573,221.130 238.023,220.800 238.400 C 220.470 238.777,219.795 239.213,219.300 239.370 C 218.805 239.526,218.400 239.822,218.400 240.027 C 218.400 240.232,218.130 240.400,217.800 240.400 C 217.470 240.400,217.200 240.568,217.200 240.773 C 217.200 240.978,216.833 241.263,216.385 241.405 C 215.268 241.759,207.780 249.204,207.429 250.309 C 207.273 250.799,206.978 251.200,206.773 251.200 C 206.568 251.200,206.400 251.470,206.400 251.800 C 206.400 252.130,206.226 252.400,206.014 252.400 C 205.801 252.400,205.508 253.300,205.362 254.400 C 205.216 255.500,204.940 256.400,204.748 256.400 C 204.557 256.400,204.400 257.030,204.400 257.800 C 204.400 258.570,204.220 259.200,204.000 259.200 C 203.756 259.200,203.600 261.010,203.600 263.829 C 203.600 268.749,203.891 269.600,205.571 269.600 C 206.027 269.600,206.400 269.757,206.400 269.949 C 206.400 270.141,207.120 270.413,208.000 270.554 C 208.880 270.694,209.600 270.987,209.600 271.205 C 209.600 271.422,209.960 271.600,210.400 271.600 C 210.840 271.600,211.200 271.780,211.200 272.000 C 211.200 272.220,211.447 272.400,211.748 272.400 C 212.050 272.400,213.445 273.569,214.848 274.998 C 218.056 278.264,218.400 278.670,218.400 279.183 C 218.400 279.412,218.577 279.600,218.792 279.600 C 219.008 279.600,219.298 280.050,219.436 280.600 C 219.574 281.150,219.847 281.600,220.043 281.600 C 220.240 281.600,220.400 282.035,220.400 282.567 C 220.400 283.098,220.587 283.596,220.815 283.672 C 221.044 283.748,221.340 285.113,221.473 286.705 C 221.607 288.297,221.870 289.600,222.058 289.600 C 222.507 289.600,222.502 292.290,222.052 292.568 C 221.861 292.686,221.579 294.226,221.425 295.991 C 221.271 297.756,220.977 299.200,220.773 299.200 C 220.568 299.200,220.400 299.470,220.400 299.800 C 220.400 300.130,220.234 300.400,220.032 300.400 C 219.829 300.400,219.535 300.985,219.378 301.700 C 219.221 302.415,218.757 303.235,218.346 303.523 C 217.936 303.810,217.600 304.230,217.600 304.455 C 217.600 305.117,212.923 309.600,212.232 309.600 C 211.884 309.600,211.600 309.780,211.600 310.000 C 211.600 310.220,211.330 310.400,211.000 310.400 C 210.670 310.400,210.400 310.566,210.400 310.768 C 210.400 310.971,209.862 311.255,209.205 311.399 C 208.547 311.543,207.906 311.828,207.781 312.031 C 207.655 312.234,207.128 312.400,206.610 312.400 C 206.091 312.400,205.592 312.625,205.500 312.900 C 205.377 313.269,203.831 313.400,199.600 313.400 C 195.369 313.400,193.823 313.269,193.700 312.900 C 193.608 312.625,192.918 312.400,192.167 312.400 C 191.415 312.400,190.800 312.234,190.800 312.032 C 190.800 311.829,190.260 311.545,189.600 311.400 C 188.940 311.255,188.400 311.010,188.400 310.854 C 188.400 310.699,187.815 310.227,187.100 309.805 C 185.186 308.675,180.856 304.164,180.563 302.994 C 180.423 302.437,179.986 301.756,179.592 301.480 C 179.172 301.185,178.759 300.197,178.592 299.089 C 178.437 298.050,178.150 297.200,177.955 297.200 C 177.760 297.200,177.600 296.570,177.600 295.800 C 177.600 295.030,177.420 294.400,177.200 294.400 C 176.960 294.400,176.800 292.800,176.800 290.400 C 176.800 288.000,176.960 286.400,177.200 286.400 C 177.420 286.400,177.600 285.590,177.600 284.600 C 177.600 283.610,177.778 282.800,177.995 282.800 C 178.213 282.800,178.506 282.080,178.646 281.200 C 178.787 280.320,179.059 279.600,179.251 279.600 C 179.443 279.600,179.600 279.330,179.600 279.000 C 179.600 278.670,179.768 278.400,179.973 278.400 C 180.178 278.400,180.469 278.012,180.620 277.537 C 180.934 276.546,185.726 271.600,186.371 271.600 C 186.607 271.600,186.800 271.423,186.800 271.208 C 186.800 270.992,187.250 270.702,187.800 270.564 C 188.350 270.426,188.800 270.153,188.800 269.957 C 188.800 269.760,189.160 269.600,189.600 269.600 C 190.040 269.600,190.400 269.437,190.400 269.238 C 190.400 269.038,191.293 268.752,192.384 268.602 C 193.834 268.403,194.433 268.125,194.610 267.570 C 194.922 266.584,194.415 263.200,193.955 263.200 C 193.760 263.200,193.600 262.750,193.600 262.200 C 193.600 261.650,193.438 261.200,193.241 261.200 C 193.043 261.200,192.755 259.940,192.600 258.400 C 192.445 256.860,192.157 255.600,191.959 255.600 C 191.762 255.600,191.600 254.700,191.600 253.600 C 191.600 252.500,191.420 251.600,191.200 251.600 C 190.947 251.600,190.800 248.800,190.800 244.000 C 190.800 239.200,190.947 236.400,191.200 236.400 C 191.420 236.400,191.600 235.590,191.600 234.600 C 191.600 233.610,191.763 232.800,191.962 232.800 C 192.162 232.800,192.449 231.900,192.600 230.800 C 192.751 229.700,192.994 228.800,193.140 228.800 C 193.457 228.800,194.251 227.030,194.621 225.500 C 194.767 224.895,195.047 224.400,195.243 224.400 C 195.440 224.400,195.600 224.040,195.600 223.600 C 195.600 223.160,195.760 222.800,195.957 222.800 C 196.153 222.800,196.435 222.316,196.583 221.724 C 196.732 221.132,197.176 220.367,197.570 220.024 C 197.963 219.681,198.413 218.995,198.570 218.500 C 198.726 218.005,199.022 217.600,199.227 217.600 C 199.432 217.600,199.600 217.330,199.600 217.000 C 199.600 216.670,199.768 216.400,199.973 216.400 C 200.178 216.400,200.470 216.010,200.621 215.534 C 200.772 215.058,201.324 214.239,201.848 213.716 C 202.372 213.192,202.800 212.599,202.800 212.397 C 202.800 212.196,203.600 211.208,204.577 210.202 C 205.555 209.196,206.464 208.029,206.598 207.607 C 206.731 207.186,207.183 206.733,207.600 206.600 C 208.017 206.467,208.467 206.017,208.600 205.600 C 208.733 205.183,209.183 204.733,209.600 204.600 C 210.017 204.467,210.467 204.017,210.600 203.600 C 210.733 203.183,211.183 202.733,211.600 202.600 C 212.017 202.467,212.470 202.008,212.606 201.580 C 212.743 201.151,213.104 200.800,213.409 200.800 C 213.714 200.800,214.978 199.810,216.218 198.600 C 217.457 197.390,218.624 196.400,218.811 196.400 C 219.256 196.400,233.600 182.043,233.600 181.598 C 233.600 181.410,234.224 180.596,234.986 179.787 C 235.749 178.979,236.478 177.985,236.607 177.579 C 236.735 177.173,237.192 176.730,237.620 176.594 C 238.049 176.457,238.400 175.993,238.400 175.560 C 238.400 175.128,238.670 174.671,239.000 174.545 C 239.330 174.418,239.600 173.993,239.600 173.600 C 239.600 173.207,239.870 172.782,240.200 172.655 C 240.530 172.529,240.800 172.103,240.800 171.709 C 240.800 171.315,241.144 170.778,241.564 170.515 C 241.984 170.253,242.449 169.490,242.596 168.819 C 242.743 168.149,243.029 167.600,243.232 167.600 C 243.434 167.600,243.600 167.330,243.600 167.000 C 243.600 166.670,243.769 166.400,243.975 166.400 C 244.182 166.400,244.472 165.590,244.621 164.600 C 244.769 163.610,245.050 162.800,245.245 162.800 C 245.440 162.800,245.600 162.530,245.600 162.200 C 245.600 161.870,245.759 161.600,245.953 161.600 C 246.148 161.600,246.432 160.430,246.585 159.000 C 246.738 157.570,247.029 156.400,247.232 156.400 C 247.444 156.400,247.600 153.005,247.600 148.400 C 247.600 144.000,247.443 140.400,247.252 140.400 C 247.060 140.400,246.776 138.780,246.622 136.800 C 246.467 134.820,246.173 133.200,245.970 133.200 C 245.766 133.200,245.600 132.405,245.600 131.433 C 245.600 130.462,245.448 129.607,245.262 129.533 C 245.076 129.460,244.816 128.713,244.683 127.873 L 244.441 126.346 245.721 126.621 C 246.424 126.773,247.060 127.055,247.133 127.249 C 247.207 127.442,247.522 127.600,247.833 127.600 C 248.145 127.600,248.400 127.760,248.400 127.957 C 248.400 128.153,248.850 128.426,249.400 128.564 C 249.950 128.702,250.400 128.992,250.400 129.208 C 250.400 129.423,250.670 129.600,251.000 129.600 C 251.330 129.600,251.600 129.768,251.600 129.973 C 251.600 130.178,251.951 130.457,252.380 130.594 C 252.808 130.730,253.267 131.183,253.400 131.600 C 253.533 132.017,253.992 132.470,254.420 132.606 C 254.849 132.743,255.200 133.104,255.200 133.409 C 255.200 133.714,255.605 134.377,256.101 134.882 C 256.596 135.387,257.345 136.340,257.764 137.000 C 258.183 137.660,258.768 138.344,259.063 138.520 C 259.358 138.696,259.600 139.191,259.600 139.620 C 259.600 140.049,259.780 140.400,260.000 140.400 C 260.220 140.400,260.400 140.670,260.400 141.000 C 260.400 143.084,262.306 140.898,262.632 138.440 C 262.783 137.308,263.062 136.285,263.253 136.167 C 263.444 136.049,263.600 135.153,263.600 134.176 C 263.600 133.199,263.780 132.400,264.000 132.400 C 264.251 132.400,264.400 129.800,264.400 125.400 C 264.400 121.000,264.251 118.400,264.000 118.400 C 263.780 118.400,263.600 117.680,263.600 116.800 C 263.600 115.920,263.443 115.200,263.252 115.200 C 263.060 115.200,262.779 113.940,262.627 112.400 C 262.476 110.860,262.182 109.600,261.976 109.600 C 261.769 109.600,261.600 109.150,261.600 108.600 C 261.600 108.050,261.444 107.600,261.252 107.600 C 261.061 107.600,260.800 106.957,260.673 106.170 C 260.404 104.513,259.534 102.400,259.120 102.400 C 258.964 102.400,258.718 101.770,258.574 101.000 C 258.429 100.230,258.151 99.600,257.955 99.600 C 257.760 99.600,257.600 99.330,257.600 99.000 C 257.600 98.670,257.432 98.400,257.227 98.400 C 257.022 98.400,256.726 97.995,256.570 97.500 C 256.413 97.005,255.977 96.330,255.600 96.000 C 255.223 95.670,254.789 95.004,254.637 94.520 C 254.484 94.037,254.008 93.530,253.580 93.394 C 253.151 93.257,252.800 92.895,252.800 92.587 C 252.800 92.041,247.534 86.400,247.024 86.400 C 246.696 86.400,245.780 85.651,244.700 84.500 C 244.236 84.005,243.613 83.600,243.315 83.600 C 243.018 83.600,242.671 83.330,242.545 83.000 C 242.418 82.670,241.993 82.400,241.600 82.400 C 241.207 82.400,240.782 82.130,240.655 81.800 C 240.529 81.470,240.059 81.200,239.613 81.200 C 239.166 81.200,238.800 81.020,238.800 80.800 C 238.800 80.580,238.530 80.400,238.200 80.400 C 237.870 80.400,237.600 80.223,237.600 80.008 C 237.600 79.792,237.150 79.502,236.600 79.364 C 236.050 79.226,235.600 78.997,235.600 78.854 C 235.600 78.498,233.667 77.673,232.097 77.359 C 231.384 77.217,230.800 76.942,230.800 76.750 C 230.800 76.558,230.417 76.400,229.948 76.400 C 229.044 76.400,229.114 80.410,230.025 80.733 C 230.231 80.807,230.400 81.287,230.400 81.800 C 230.400 82.313,230.625 82.808,230.900 82.900 C 231.285 83.029,231.400 85.809,231.400 95.000 C 231.400 104.191,231.285 106.972,230.900 107.100 C 230.613 107.196,230.400 107.936,230.400 108.833 C 230.400 109.695,230.237 110.400,230.038 110.400 C 229.838 110.400,229.551 111.300,229.400 112.400 C 229.249 113.500,228.962 114.400,228.762 114.400 C 228.563 114.400,228.400 114.850,228.400 115.400 C 228.400 115.950,228.243 116.400,228.051 116.400 C 227.859 116.400,227.587 117.120,227.446 118.000 C 227.306 118.880,227.013 119.600,226.795 119.600 C 226.578 119.600,226.400 119.960,226.400 120.400 C 226.400 120.840,226.240 121.200,226.043 121.200 C 225.847 121.200,225.574 121.650,225.436 122.200 C 225.298 122.750,225.008 123.200,224.792 123.200 C 224.577 123.200,224.400 123.470,224.400 123.800 C 224.400 124.130,224.240 124.400,224.043 124.400 C 223.847 124.400,223.574 124.850,223.436 125.400 C 223.298 125.950,223.008 126.400,222.792 126.400 C 222.577 126.400,222.400 126.670,222.400 127.000 C 222.400 127.330,222.232 127.600,222.027 127.600 C 221.822 127.600,221.534 127.979,221.387 128.442 C 221.240 128.905,220.508 129.932,219.760 130.725 C 219.012 131.518,218.400 132.318,218.400 132.502 C 218.400 132.687,217.950 133.255,217.400 133.765 C 216.850 134.275,216.400 134.814,216.400 134.963 C 216.400 135.315,215.669 136.196,214.300 137.491 C 213.695 138.064,213.200 138.689,213.200 138.881 C 213.200 139.073,208.070 144.367,201.800 150.645 C 195.530 156.924,190.400 162.228,190.400 162.433 C 190.400 162.637,189.500 163.685,188.400 164.762 C 187.300 165.839,186.400 166.836,186.400 166.977 C 186.400 167.222,185.996 167.763,184.900 168.985 C 184.625 169.292,184.400 169.654,184.400 169.789 C 184.400 169.924,183.950 170.520,183.400 171.113 C 182.850 171.707,182.400 172.399,182.400 172.653 C 182.400 172.907,182.130 173.218,181.800 173.345 C 181.470 173.471,181.200 173.928,181.200 174.360 C 181.200 174.795,180.842 175.260,180.400 175.400 C 179.958 175.540,179.600 176.005,179.600 176.440 C 179.600 176.872,179.330 177.329,179.000 177.455 C 178.670 177.582,178.400 178.026,178.400 178.443 C 178.400 178.859,178.223 179.200,178.008 179.200 C 177.792 179.200,177.502 179.650,177.364 180.200 C 177.226 180.750,176.953 181.200,176.757 181.200 C 176.560 181.200,176.400 181.470,176.400 181.800 C 176.400 182.130,176.228 182.400,176.018 182.400 C 175.808 182.400,175.518 183.030,175.374 183.800 C 175.229 184.570,174.995 185.200,174.853 185.200 C 174.542 185.200,173.745 186.983,173.379 188.500 C 173.233 189.105,172.953 189.600,172.757 189.600 C 172.560 189.600,172.400 190.014,172.400 190.520 C 172.400 191.026,172.215 191.625,171.989 191.851 C 171.764 192.076,171.468 193.192,171.334 194.331 C 171.199 195.469,170.934 196.400,170.744 196.400 C 170.555 196.400,170.400 197.105,170.400 197.967 C 170.400 198.864,170.187 199.605,169.900 199.700 C 169.205 199.932,169.233 219.393,169.929 220.089 C 170.188 220.348,170.400 221.424,170.400 222.480 C 170.400 223.536,170.559 224.400,170.753 224.400 C 170.947 224.400,171.233 225.750,171.387 227.400 C 171.542 229.050,171.833 230.400,172.034 230.400 C 172.235 230.400,172.400 230.925,172.400 231.567 C 172.400 232.208,172.551 232.793,172.737 232.867 C 173.192 233.047,173.667 235.600,173.246 235.600 C 173.062 235.600,172.574 235.150,172.161 234.600 C 171.748 234.050,171.205 233.600,170.954 233.600 C 170.702 233.600,169.553 232.700,168.400 231.600 C 167.247 230.500,166.145 229.600,165.952 229.600 C 165.758 229.600,165.600 229.438,165.600 229.241 C 165.600 229.043,164.700 227.962,163.600 226.839 C 162.500 225.715,161.600 224.546,161.600 224.241 C 161.600 223.935,161.330 223.582,161.000 223.455 C 160.670 223.329,160.400 222.960,160.400 222.635 C 160.400 222.311,160.064 221.810,159.654 221.523 C 159.243 221.235,158.779 220.415,158.622 219.700 C 158.465 218.985,158.171 218.400,157.968 218.400 C 157.766 218.400,157.600 218.130,157.600 217.800 C 157.600 217.470,157.440 217.200,157.245 217.200 C 157.049 217.200,156.771 216.570,156.626 215.800 C 156.482 215.030,156.192 214.400,155.982 214.400 C 155.772 214.400,155.600 214.130,155.600 213.800 C 155.600 213.470,155.437 213.200,155.238 213.200 C 155.038 213.200,154.751 212.300,154.600 211.200 C 154.449 210.100,154.162 209.200,153.962 209.200 C 153.763 209.200,153.600 208.765,153.600 208.233 C 153.600 207.702,153.417 207.206,153.194 207.131 C 152.971 207.057,152.675 205.782,152.536 204.298 C 152.398 202.814,152.130 201.600,151.942 201.600 C 151.754 201.600,151.600 200.715,151.600 199.633 C 151.600 198.416,151.410 197.603,151.100 197.500 C 150.373 197.258,150.373 173.142,151.100 172.900 C 151.387 172.805,151.600 172.064,151.600 171.167 C 151.600 170.305,151.759 169.600,151.953 169.600 C 152.148 169.600,152.432 168.430,152.585 167.000 C 152.738 165.570,153.029 164.400,153.232 164.400 C 153.434 164.400,153.600 163.770,153.600 163.000 C 153.600 162.230,153.764 161.600,153.965 161.600 C 154.166 161.600,154.451 160.880,154.600 160.000 C 154.749 159.120,155.034 158.400,155.235 158.400 C 155.436 158.400,155.600 157.961,155.600 157.424 C 155.600 156.887,155.764 156.346,155.965 156.222 C 156.166 156.097,156.452 155.277,156.600 154.398 C 156.749 153.519,157.034 152.800,157.235 152.800 C 157.436 152.800,157.600 152.530,157.600 152.200 C 157.600 151.870,157.760 151.600,157.955 151.600 C 158.151 151.600,158.436 150.933,158.589 150.118 C 158.742 149.303,159.212 148.337,159.633 147.972 C 160.054 147.606,160.511 146.743,160.649 146.054 C 160.787 145.364,161.058 144.800,161.250 144.800 C 161.442 144.800,161.600 144.530,161.600 144.200 C 161.600 143.870,161.768 143.600,161.973 143.600 C 162.178 143.600,162.474 143.195,162.630 142.700 C 162.787 142.205,163.249 141.509,163.657 141.153 C 164.066 140.797,164.400 140.301,164.400 140.050 C 164.400 139.800,164.850 139.203,165.400 138.725 C 165.950 138.247,166.400 137.689,166.400 137.485 C 166.400 137.280,167.390 136.139,168.600 134.948 C 169.810 133.757,170.800 132.612,170.800 132.403 C 170.800 132.194,172.150 130.668,173.800 129.013 C 175.450 127.358,176.800 125.745,176.800 125.429 C 176.800 125.112,177.151 124.743,177.580 124.606 C 178.008 124.470,178.467 124.017,178.600 123.600 C 178.733 123.183,179.183 122.733,179.600 122.600 C 180.017 122.467,180.470 122.008,180.606 121.580 C 180.743 121.151,181.022 120.800,181.227 120.800 C 181.432 120.800,181.600 120.602,181.600 120.360 C 181.600 120.119,182.500 119.039,183.600 117.962 C 184.700 116.885,185.600 115.830,185.600 115.618 C 185.600 115.406,186.320 114.498,187.200 113.600 C 188.080 112.702,188.800 111.717,188.800 111.411 C 188.800 111.105,189.151 110.743,189.580 110.606 C 190.008 110.470,190.480 109.979,190.627 109.513 C 190.775 109.048,191.324 108.239,191.848 107.716 C 192.372 107.192,192.800 106.584,192.800 106.364 C 192.800 106.144,193.250 105.514,193.800 104.964 C 194.350 104.414,194.800 103.721,194.800 103.425 C 194.800 103.128,195.073 102.781,195.406 102.653 C 195.739 102.525,196.189 102.011,196.405 101.510 C 196.858 100.461,197.687 99.092,198.046 98.800 C 198.181 98.690,198.432 98.150,198.603 97.600 C 198.774 97.050,199.234 96.322,199.624 95.982 C 200.014 95.642,200.458 94.697,200.611 93.882 C 200.764 93.067,201.049 92.400,201.245 92.400 C 201.440 92.400,201.600 92.040,201.600 91.600 C 201.600 91.160,201.778 90.800,201.995 90.800 C 202.213 90.800,202.506 90.080,202.646 89.200 C 202.787 88.320,203.059 87.600,203.251 87.600 C 203.443 87.600,203.600 87.150,203.600 86.600 C 203.600 86.050,203.771 85.600,203.980 85.600 C 204.189 85.600,204.482 84.520,204.632 83.200 C 204.781 81.880,205.060 80.800,205.252 80.800 C 205.443 80.800,205.600 79.630,205.600 78.200 C 205.600 76.733,205.774 75.600,206.000 75.600 C 206.246 75.600,206.400 73.600,206.400 70.400 C 206.400 67.200,206.246 65.200,206.000 65.200 C 205.771 65.200,205.600 64.000,205.600 62.400 C 205.600 60.860,205.443 59.600,205.252 59.600 C 205.060 59.600,204.780 58.344,204.628 56.809 C 204.477 55.274,204.184 53.914,203.977 53.786 C 203.770 53.658,203.600 53.278,203.600 52.941 C 203.600 52.266,206.869 52.549,207.133 53.247 C 207.207 53.441,207.522 53.600,207.833 53.600 C 208.145 53.600,208.400 53.760,208.400 53.957 C 208.400 54.153,208.850 54.426,209.400 54.564 C 209.950 54.702,210.400 54.992,210.400 55.208 C 210.400 55.423,210.588 55.600,210.817 55.600 C 211.242 55.600,212.058 56.190,212.919 57.119 C 213.184 57.405,213.634 57.855,213.919 58.119 C 214.205 58.384,214.655 58.834,214.919 59.119 C 215.184 59.405,215.633 59.855,215.919 60.119 C 216.204 60.384,216.845 61.011,217.343 61.514 C 217.841 62.017,218.778 62.467,219.424 62.514 L 220.600 62.600 220.588 51.629 C 220.578 43.365,220.455 40.618,220.088 40.496 C 219.815 40.405,219.600 39.643,219.600 38.767 C 219.600 37.905,219.443 37.200,219.252 37.200 C 219.060 37.200,218.781 36.120,218.632 34.800 C 218.482 33.480,218.189 32.400,217.980 32.400 C 217.771 32.400,217.600 31.950,217.600 31.400 C 217.600 30.850,217.422 30.400,217.205 30.400 C 216.987 30.400,216.694 29.680,216.554 28.800 C 216.413 27.920,216.141 27.200,215.949 27.200 C 215.757 27.200,215.600 26.840,215.600 26.400 C 215.600 25.960,215.440 25.600,215.243 25.600 C 215.047 25.600,214.774 25.150,214.636 24.600 C 214.498 24.050,214.208 23.600,213.992 23.600 C 213.777 23.600,213.600 23.330,213.600 23.000 C 213.600 22.670,213.420 22.400,213.200 22.400 C 212.980 22.400,212.800 22.138,212.800 21.818 C 212.800 21.498,212.372 20.808,211.848 20.284 C 211.324 19.761,210.775 18.952,210.627 18.487 C 210.480 18.021,210.017 17.533,209.600 17.400 C 209.183 17.267,208.733 16.817,208.600 16.400 C 208.467 15.983,208.017 15.533,207.600 15.400 C 207.183 15.267,206.733 14.817,206.600 14.400 C 206.467 13.983,206.017 13.533,205.600 13.400 C 205.183 13.267,204.733 12.817,204.600 12.400 C 204.467 11.983,204.008 11.530,203.580 11.394 C 203.151 11.257,202.800 10.978,202.800 10.773 C 202.800 10.568,202.596 10.400,202.346 10.400 C 202.096 10.400,201.475 9.950,200.965 9.400 C 200.455 8.850,199.841 8.400,199.600 8.400 C 199.359 8.400,198.745 7.950,198.235 7.400 C 197.725 6.850,197.104 6.400,196.854 6.400 C 196.604 6.400,196.400 6.223,196.400 6.008 C 196.400 5.792,195.950 5.502,195.400 5.364 C 194.850 5.226,194.400 4.953,194.400 4.757 C 194.400 4.560,194.040 4.400,193.600 4.400 C 193.160 4.400,192.800 4.234,192.800 4.032 C 192.800 3.829,192.260 3.545,191.600 3.400 C 190.940 3.255,190.400 2.971,190.400 2.768 C 190.400 2.566,190.040 2.400,189.600 2.400 C 189.160 2.400,188.800 2.233,188.800 2.029 C 188.800 1.825,187.810 1.534,186.600 1.383 C 185.390 1.232,184.400 0.949,184.400 0.754 C 184.400 0.559,182.870 0.400,181.000 0.400 C 178.734 0.400,177.600 0.551,177.600 0.853 " stroke="none" fill="#bc945c" fill-rule="evenodd"></path><path id="path1" d="" stroke="none" fill="#c0945c" fill-rule="evenodd"></path><path id="path2" d="" stroke="none" fill="#c0945c" fill-rule="evenodd"></path><path id="path3" d="" stroke="none" fill="#c0945c" fill-rule="evenodd"></path><path id="path4" d="" stroke="none" fill="#c0945c" fill-rule="evenodd"></path></g></svg>